mtllib Route36_1_edit.mtl
o map
v -16.0 -16.0 3.0
v -14.0 -16.0 3.0
v -14.0 -14.0 3.0
v -16.0 -14.0 3.0
v -17.0 -15.625 3.0
v -13.0 -15.625 3.0
v -13.0 -13.077148 6.083984
v -17.0 -13.077148 6.083984
v -16.0 -14.0 3.0
v -14.0 -14.0 3.0
v -14.0 -12.0 3.0
v -16.0 -12.0 3.0
v -17.0 -13.625 3.0
v -13.0 -13.625 3.0
v -13.0 -11.077148 6.083984
v -17.0 -11.077148 6.083984
v -16.0 -12.0 3.0
v -14.0 -12.0 3.0
v -14.0 -10.0 3.0
v -16.0 -10.0 3.0
v -17.0 -11.625 3.0
v -13.0 -11.625 3.0
v -13.0 -9.077148 6.083984
v -17.0 -9.077148 6.083984
v -16.0 -10.0 3.0
v -14.0 -10.0 3.0
v -14.0 -8.0 3.0
v -16.0 -8.0 3.0
v -17.0 -9.625 3.0
v -13.0 -9.625 3.0
v -13.0 -7.077149 6.083984
v -17.0 -7.077149 6.083984
v -8.0 -6.0 3.0
v -16.0 -6.0 3.0
v -16.0 -8.0 3.0
v -8.0 -8.0 3.0
v -16.0 -6.0 3.0
v -14.0 -6.0 3.0
v -14.0 -4.0 3.0
v -16.0 -4.0 3.0
v -17.0 -5.625 3.0
v -13.0 -5.625 3.0
v -13.0 -3.077149 6.083984
v -17.0 -3.077149 6.083984
v -16.0 -4.0 3.0
v -14.0 -4.0 3.0
v -14.0 -2.0 3.0
v -16.0 -2.0 3.0
v -17.0 -3.625 3.0
v -13.0 -3.625 3.0
v -13.0 -1.0771489 6.083984
v -17.0 -1.0771489 6.083984
v -16.0 -2.0 3.0
v -14.0 -2.0 3.0
v -14.0 0.0 3.0
v -16.0 0.0 3.0
v -17.0 -1.625 3.0
v -13.0 -1.625 3.0
v -13.0 0.9228511 6.083984
v -17.0 0.9228511 6.083984
v -16.0 0.0 3.0
v -14.0 0.0 3.0
v -14.0 2.0 3.0
v -16.0 2.0 3.0
v -17.0 0.375 3.0
v -13.0 0.375 3.0
v -13.0 2.922851 6.083984
v -17.0 2.922851 6.083984
v -16.0 2.0 3.0
v -14.0 2.0 3.0
v -14.0 4.0 3.0
v -16.0 4.0 3.0
v -17.0 2.375 3.0
v -13.0 2.375 3.0
v -13.0 4.922851 6.083984
v -17.0 4.922851 6.083984
v -16.0 4.0 3.0
v -14.0 4.0 3.0
v -14.0 6.0 3.0
v -16.0 6.0 3.0
v -17.0 4.375 3.0
v -13.0 4.375 3.0
v -13.0 6.922851 6.083984
v -17.0 6.922851 6.083984
v -16.0 6.0 3.0
v -14.0 6.0 3.0
v -14.0 8.0 3.0
v -16.0 8.0 3.0
v -17.0 6.375 3.0
v -13.0 6.375 3.0
v -13.0 8.922852 6.083984
v -17.0 8.922852 6.083984
v -16.0 8.0 3.0
v -14.0 8.0 3.0
v -14.0 10.0 3.0
v -16.0 10.0 3.0
v -17.0 8.375 3.0
v -13.0 8.375 3.0
v -13.0 10.922852 6.083984
v -17.0 10.922852 6.083984
v -16.0 10.0 3.0
v -14.0 10.0 3.0
v -14.0 12.0 3.0
v -16.0 12.0 3.0
v -17.0 10.375 3.0
v -13.0 10.375 3.0
v -13.0 12.922852 6.083984
v -17.0 12.922852 6.083984
v -16.0 12.0 3.0
v -14.0 12.0 3.0
v -14.0 14.0 3.0
v -16.0 14.0 3.0
v -17.0 12.375 3.0
v -13.0 12.375 3.0
v -13.0 14.922852 6.083984
v -17.0 14.922852 6.083984
v -16.0 14.0 3.0
v -14.0 14.0 3.0
v -14.0 16.0 3.0
v -16.0 16.0 3.0
v -17.0 14.375 3.0
v -13.0 14.375 3.0
v -13.0 16.922852 6.083984
v -17.0 16.922852 6.083984
v -14.0 -15.5625 3.0
v -6.0 -15.5625 3.0
v -6.0 -13.014648 6.083984
v -14.0 -13.014648 6.083984
v -14.0 -16.0 3.0
v -6.0 -16.0 3.0
v -6.0 -14.0 3.0
v -14.0 -14.0 3.0
v -14.0 -13.5625 3.0
v -6.0 -13.5625 3.0
v -6.0 -11.014648 6.083984
v -14.0 -11.014648 6.083984
v -14.0 -14.0 3.0
v -6.0 -14.0 3.0
v -6.0 -12.0 3.0
v -14.0 -12.0 3.0
v -14.0 -11.5625 3.0
v -8.0 -11.5625 3.0
v -8.0 -9.014648 6.083984
v -14.0 -9.014648 6.083984
v -14.0 -12.0 3.0
v -8.0 -12.0 3.0
v -8.0 -10.0 3.0
v -14.0 -10.0 3.0
v -14.0 -9.5625 3.0
v -12.0 -9.5625 3.0
v -12.0 -7.014649 6.083984
v -14.0 -7.014649 6.083984
v -14.0 -10.0 3.0
v -12.0 -10.0 3.0
v -12.0 -8.0 3.0
v -14.0 -8.0 3.0
v -14.0 -5.5625 3.0
v -12.0 -5.5625 3.0
v -12.0 -3.014649 6.083984
v -14.0 -3.014649 6.083984
v -14.0 -6.0 3.0
v -12.0 -6.0 3.0
v -12.0 -4.0 3.0
v -14.0 -4.0 3.0
v -14.0 -3.5625 3.0
v -12.0 -3.5625 3.0
v -12.0 -1.0146489 6.083984
v -14.0 -1.0146489 6.083984
v -14.0 -4.0 3.0
v -12.0 -4.0 3.0
v -12.0 -2.0 3.0
v -14.0 -2.0 3.0
v -14.0 -1.5625 3.0
v -12.0 -1.5625 3.0
v -12.0 0.9853511 6.083984
v -14.0 0.9853511 6.083984
v -14.0 -2.0 3.0
v -12.0 -2.0 3.0
v -12.0 0.0 3.0
v -14.0 0.0 3.0
v -14.0 0.4375 3.0
v -12.0 0.4375 3.0
v -12.0 2.985351 6.083984
v -14.0 2.985351 6.083984
v -14.0 0.0 3.0
v -12.0 0.0 3.0
v -12.0 2.0 3.0
v -14.0 2.0 3.0
v -14.0 2.4375 3.0
v 2.0 2.4375 3.0
v 2.0 4.985351 6.083984
v -14.0 4.985351 6.083984
v -14.0 2.0 3.0
v 2.0 2.0 3.0
v 2.0 4.0 3.0
v -14.0 4.0 3.0
v -14.0 4.4375 3.0
v 2.0 4.4375 3.0
v 2.0 6.985351 6.083984
v -14.0 6.985351 6.083984
v -14.0 4.0 3.0
v 2.0 4.0 3.0
v 2.0 6.0 3.0
v -14.0 6.0 3.0
v -14.0 6.4375 3.0
v 2.0 6.4375 3.0
v 2.0 8.985352 6.083984
v -14.0 8.985352 6.083984
v -14.0 6.0 3.0
v 2.0 6.0 3.0
v 2.0 8.0 3.0
v -14.0 8.0 3.0
v -14.0 8.4375 3.0
v 2.0 8.4375 3.0
v 2.0 10.985352 6.083984
v -14.0 10.985352 6.083984
v -14.0 8.0 3.0
v 2.0 8.0 3.0
v 2.0 10.0 3.0
v -14.0 10.0 3.0
v -14.0 10.4375 3.0
v 2.0 10.4375 3.0
v 2.0 12.985352 6.083984
v -14.0 12.985352 6.083984
v -14.0 10.0 3.0
v 2.0 10.0 3.0
v 2.0 12.0 3.0
v -14.0 12.0 3.0
v -14.0 12.4375 3.0
v 2.0 12.4375 3.0
v 2.0 14.985352 6.083984
v -14.0 14.985352 6.083984
v -14.0 12.0 3.0
v 2.0 12.0 3.0
v 2.0 14.0 3.0
v -14.0 14.0 3.0
v -14.0 14.4375 3.0
v 2.0 14.4375 3.0
v 2.0 16.985352 6.083984
v -14.0 16.985352 6.083984
v -14.0 14.0 3.0
v 2.0 14.0 3.0
v 2.0 16.0 3.0
v -14.0 16.0 3.0
v -12.0 -10.0 3.0
v -10.0 -10.0 3.0
v -10.0 -8.0 3.0
v -12.0 -8.0 3.0
v -13.0 -9.625 3.0
v -9.0 -9.625 3.0
v -9.0 -7.077149 6.083984
v -13.0 -7.077149 6.083984
v -12.0 -6.0 3.0
v -10.0 -6.0 3.0
v -10.0 -4.0 3.0
v -12.0 -4.0 3.0
v -13.0 -5.625 3.0
v -9.0 -5.625 3.0
v -9.0 -3.077149 6.083984
v -13.0 -3.077149 6.083984
v -12.0 -4.0 3.0
v -10.0 -4.0 3.0
v -10.0 -2.0 3.0
v -12.0 -2.0 3.0
v -13.0 -3.625 3.0
v -9.0 -3.625 3.0
v -9.0 -1.0771489 6.083984
v -13.0 -1.0771489 6.083984
v -12.0 -2.0 3.0
v -10.0 -2.0 3.0
v -10.0 0.0 3.0
v -12.0 0.0 3.0
v -13.0 -1.625 3.0
v -9.0 -1.625 3.0
v -9.0 0.9228511 6.083984
v -13.0 0.9228511 6.083984
v -12.0 0.0 3.0
v -10.0 0.0 3.0
v -10.0 2.0 3.0
v -12.0 2.0 3.0
v -13.0 0.375 3.0
v -9.0 0.375 3.0
v -9.0 2.922851 6.083984
v -13.0 2.922851 6.083984
v -4.0 -9.0 3.0
v -10.0 -9.0 3.0
v -10.0 -10.0 3.0
v -4.0 -10.0 3.0
v -8.0 -8.0 3.0
v -10.0 -8.0 3.0
v -10.0 -9.0 3.0
v -8.0 -9.0 3.0
v -8.0 2.0 3.0
v -10.0 2.0 3.0
v -10.0 -6.0 3.0
v -8.0 -6.0 3.0
v -8.0 -12.0 3.0
v -6.0 -12.0 3.0
v -6.0 -10.0 3.0
v -8.0 -10.0 3.0
v -9.0 -11.625 3.0
v -5.0 -11.625 3.0
v -5.0 -9.077148 6.083984
v -9.0 -9.077148 6.083984
v -8.0 -8.0 2.999999
v -8.0 -9.0 2.999999
v -7.0 -9.0 2.999999
v -7.0 -8.0 2.999999
v -8.0 -8.000002 2.999998
v -7.0 -8.000002 2.999998
v -8.0 -6.000002 2.999998
v -7.0 -6.000002 2.999998
v -7.0 -5.0 2.999999
v -8.0 -5.0 2.999999
v -8.0 -6.0 2.999999
v -7.0 -6.0 2.999999
v 0.0 -2.0 3.0
v -8.0 -2.0 3.0
v -8.0 -5.0 3.0
v 0.0 -5.0 3.0
v -2.0 2.0 3.0
v -8.0 2.0 3.0
v -8.0 -2.0 3.0
v -2.0 -2.0 3.0
v -7.0 -8.0 3.0
v -7.0 -9.0 3.0
v -4.0 -9.0 3.0
v -4.0 -8.0 3.0
v 1.0 -6.0 3.0
v -7.0 -6.0 3.0
v -7.0 -8.0 3.0
v 1.0 -8.0 3.0
v 1.0 -6.0 3.0
v 1.0 -5.0 3.0
v -7.0 -5.0 3.0
v -7.0 -6.0 3.0
v -6.0 -16.0 3.0
v -4.0 -16.0 3.0
v -4.0 -14.0 3.0
v -6.0 -14.0 3.0
v -7.0 -15.625 3.0
v -3.0 -15.625 3.0
v -3.0 -13.077148 6.083984
v -7.0 -13.077148 6.083984
v -6.0 -14.0 3.0
v -4.0 -14.0 3.0
v -4.0 -12.0 3.0
v -6.0 -12.0 3.0
v -7.0 -13.625 3.0
v -3.0 -13.625 3.0
v -3.0 -11.077148 6.083984
v -7.0 -11.077148 6.083984
v -4.0 -10.0 3.0
v -6.0 -10.0 3.0
v -6.0 -12.0 3.0
v -4.0 -12.0 3.0
v -4.0 -15.0 2.999999
v -4.0 -16.0 2.999999
v -3.0 -16.0 2.999999
v -3.0 -15.0 2.999999
v -4.0 -15.000006 2.999998
v -3.0 -15.000006 2.999998
v -4.0 -9.000006 2.999998
v -3.0 -9.000006 2.999998
v -3.0 -9.0 3.0
v -3.0 -8.0 3.0
v -4.0 -8.0 3.0
v -4.0 -9.0 3.0
v -3.0 -15.0 2.999998
v -3.0 -16.0 2.999998
v 1.0 -16.0 2.999998
v 1.0 -15.0 2.999998
v 1.0 -8.0 3.0
v -3.0 -8.0 3.0
v -3.0 -15.0 3.0
v 1.0 -15.0 3.0
v -2.0 -2.0 3.0
v 0.0 -2.0 3.0
v 0.0 0.0 3.0
v -2.0 0.0 3.0
v -3.0 -1.625 3.0
v 1.0 -1.625 3.0
v 1.0 0.9228511 6.083984
v -3.0 0.9228511 6.083984
v -2.0 0.0 3.0
v 0.0 0.0 3.0
v 0.0 2.0 3.0
v -2.0 2.0 3.0
v -3.0 0.375 3.0
v 1.0 0.375 3.0
v 1.0 2.922851 6.083984
v -3.0 2.922851 6.083984
v 8.0 -2.0 3.0
v 0.0 -2.0 3.0
v 0.0 -5.0 3.0
v 8.0 -5.0 3.0
v 0.0 -1.5625 3.0
v 14.0 -1.5625 3.0
v 14.0 0.9853511 6.083984
v 0.0 0.9853511 6.083984
v 0.0 -2.0 3.0
v 14.0 -2.0 3.0
v 14.0 0.0 3.0
v 0.0 0.0 3.0
v 0.0 0.4375 3.0
v 14.0 0.4375 3.0
v 14.0 2.985351 6.083984
v 0.0 2.985351 6.083984
v 0.0 0.0 3.0
v 14.0 0.0 3.0
v 14.0 2.0 3.0
v 0.0 2.0 3.0
v 1.0 -16.0 2.999999
v 2.0 -16.0 2.999999
v 2.0 -15.0 2.999999
v 1.0 -15.0 2.999999
v 1.0 -15.0 3.0
v 2.0 -15.0 3.0
v 2.0 -9.0 3.0
v 1.0 -9.0 3.0
v 2.0 -8.0 3.0
v 1.0 -8.0 3.0
v 1.0 -9.0 3.0
v 2.0 -9.0 3.0
v 9.0 -6.0 3.0
v 1.0 -6.0 3.0
v 1.0 -8.0 3.0
v 9.0 -8.0 3.0
v 9.0 -6.0 3.0
v 9.0 -5.0 3.0
v 1.0 -5.0 3.0
v 1.0 -6.0 3.0
v 2.0 -16.0 3.0
v 4.0 -16.0 3.0
v 4.0 -14.0 3.0
v 2.0 -14.0 3.0
v 1.0 -15.625 3.0
v 5.0 -15.625 3.0
v 5.0 -13.077148 6.083984
v 1.0 -13.077148 6.083984
v 2.0 -14.0 3.0
v 4.0 -14.0 3.0
v 4.0 -12.0 3.0
v 2.0 -12.0 3.0
v 1.0 -13.625 3.0
v 5.0 -13.625 3.0
v 5.0 -11.077148 6.083984
v 1.0 -11.077148 6.083984
v 4.0 -9.0 3.0
v 2.0 -9.0 3.0
v 2.0 -12.0 3.0
v 4.0 -12.0 3.0
v 2.0 -8.0 3.0
v 2.0 -9.0 3.0
v 10.0 -9.0 3.0
v 10.0 -8.0 3.0
v 2.0 2.4375 3.0
v 14.0 2.4375 3.0
v 14.0 4.985351 6.083984
v 2.0 4.985351 6.083984
v 2.0 2.0 3.0
v 14.0 2.0 3.0
v 14.0 4.0 3.0
v 2.0 4.0 3.0
v 2.0 4.4375 3.0
v 14.0 4.4375 3.0
v 14.0 6.985351 6.083984
v 2.0 6.985351 6.083984
v 2.0 4.0 3.0
v 14.0 4.0 3.0
v 14.0 6.0 3.0
v 2.0 6.0 3.0
v 2.0 6.4375 3.0
v 14.0 6.4375 3.0
v 14.0 8.985352 6.083984
v 2.0 8.985352 6.083984
v 2.0 6.0 3.0
v 14.0 6.0 3.0
v 14.0 8.0 3.0
v 2.0 8.0 3.0
v 2.0 8.4375 3.0
v 14.0 8.4375 3.0
v 14.0 10.985352 6.083984
v 2.0 10.985352 6.083984
v 2.0 8.0 3.0
v 14.0 8.0 3.0
v 14.0 10.0 3.0
v 2.0 10.0 3.0
v 2.0 10.4375 3.0
v 14.0 10.4375 3.0
v 14.0 12.985352 6.083984
v 2.0 12.985352 6.083984
v 2.0 10.0 3.0
v 14.0 10.0 3.0
v 14.0 12.0 3.0
v 2.0 12.0 3.0
v 2.0 12.4375 3.0
v 14.0 12.4375 3.0
v 14.0 14.985352 6.083984
v 2.0 14.985352 6.083984
v 2.0 12.0 3.0
v 14.0 12.0 3.0
v 14.0 14.0 3.0
v 2.0 14.0 3.0
v 2.0 14.4375 3.0
v 14.0 14.4375 3.0
v 14.0 16.985352 6.083984
v 2.0 16.985352 6.083984
v 2.0 14.0 3.0
v 14.0 14.0 3.0
v 14.0 16.0 3.0
v 2.0 16.0 3.0
v 4.0 -15.5625 3.0
v 14.0 -15.5625 3.0
v 14.0 -13.014648 6.083984
v 4.0 -13.014648 6.083984
v 4.0 -16.0 3.0
v 14.0 -16.0 3.0
v 14.0 -14.0 3.0
v 4.0 -14.0 3.0
v 4.0 -13.5625 3.0
v 14.0 -13.5625 3.0
v 14.0 -11.014648 6.083984
v 4.0 -11.014648 6.083984
v 4.0 -14.0 3.0
v 14.0 -14.0 3.0
v 14.0 -12.0 3.0
v 4.0 -12.0 3.0
v 4.0 -12.0 3.0
v 6.0 -12.0 3.0
v 6.0 -10.0 3.0
v 4.0 -10.0 3.0
v 3.0 -11.625 3.0
v 7.0 -11.625 3.0
v 7.0 -9.077148 6.083984
v 3.0 -9.077148 6.083984
v 12.0 -9.0 3.0
v 4.0 -9.0 3.0
v 4.0 -10.0 3.0
v 12.0 -10.0 3.0
v 6.0 -11.5625 3.0
v 14.0 -11.5625 3.0
v 14.0 -9.014648 6.083984
v 6.0 -9.014648 6.083984
v 6.0 -12.0 3.0
v 14.0 -12.0 3.0
v 14.0 -10.0 3.0
v 6.0 -10.0 3.0
v 16.0 -4.0 3.0
v 8.0 -4.0 3.0
v 8.0 -5.0 3.0
v 16.0 -5.0 3.0
v 14.0 -2.0 3.0
v 8.0 -2.0 3.0
v 8.0 -4.0 3.0
v 14.0 -4.0 3.0
v 16.0 -6.0 3.0
v 9.0 -6.0 3.0
v 9.0 -8.0 3.0
v 16.0 -8.0 3.0
v 16.0 -6.0 3.0
v 16.0 -5.0 3.0
v 9.0 -5.0 3.0
v 9.0 -6.0 3.0
v 10.0 -8.0 3.0
v 10.0 -9.0 3.0
v 16.0 -9.0 3.0
v 16.0 -8.0 3.0
v 16.0 -9.0 3.0
v 12.0 -9.0 3.0
v 12.0 -10.0 3.0
v 16.0 -10.0 3.0
v 14.0 -16.0 3.0
v 16.0 -16.0 3.0
v 16.0 -14.0 3.0
v 14.0 -14.0 3.0
v 13.0 -15.625 3.0
v 17.0 -15.625 3.0
v 17.0 -13.077148 6.083984
v 13.0 -13.077148 6.083984
v 14.0 -14.0 3.0
v 16.0 -14.0 3.0
v 16.0 -12.0 3.0
v 14.0 -12.0 3.0
v 13.0 -13.625 3.0
v 17.0 -13.625 3.0
v 17.0 -11.077148 6.083984
v 13.0 -11.077148 6.083984
v 14.0 -12.0 3.0
v 16.0 -12.0 3.0
v 16.0 -10.0 3.0
v 14.0 -10.0 3.0
v 13.0 -11.625 3.0
v 17.0 -11.625 3.0
v 17.0 -9.077148 6.083984
v 13.0 -9.077148 6.083984
v 14.0 -4.0 3.0
v 16.0 -4.0 3.0
v 16.0 -2.0 3.0
v 14.0 -2.0 3.0
v 13.0 -3.625 3.0
v 17.0 -3.625 3.0
v 17.0 -1.0771489 6.083984
v 13.0 -1.0771489 6.083984
v 14.0 -2.0 3.0
v 16.0 -2.0 3.0
v 16.0 0.0 3.0
v 14.0 0.0 3.0
v 13.0 -1.625 3.0
v 17.0 -1.625 3.0
v 17.0 0.9228511 6.083984
v 13.0 0.9228511 6.083984
v 14.0 0.0 3.0
v 16.0 0.0 3.0
v 16.0 2.0 3.0
v 14.0 2.0 3.0
v 13.0 0.375 3.0
v 17.0 0.375 3.0
v 17.0 2.922851 6.083984
v 13.0 2.922851 6.083984
v 14.0 2.0 3.0
v 16.0 2.0 3.0
v 16.0 4.0 3.0
v 14.0 4.0 3.0
v 13.0 2.375 3.0
v 17.0 2.375 3.0
v 17.0 4.922851 6.083984
v 13.0 4.922851 6.083984
v 14.0 4.0 3.0
v 16.0 4.0 3.0
v 16.0 6.0 3.0
v 14.0 6.0 3.0
v 13.0 4.375 3.0
v 17.0 4.375 3.0
v 17.0 6.922851 6.083984
v 13.0 6.922851 6.083984
v 14.0 6.0 3.0
v 16.0 6.0 3.0
v 16.0 8.0 3.0
v 14.0 8.0 3.0
v 13.0 6.375 3.0
v 17.0 6.375 3.0
v 17.0 8.922852 6.083984
v 13.0 8.922852 6.083984
v 14.0 8.0 3.0
v 16.0 8.0 3.0
v 16.0 10.0 3.0
v 14.0 10.0 3.0
v 13.0 8.375 3.0
v 17.0 8.375 3.0
v 17.0 10.922852 6.083984
v 13.0 10.922852 6.083984
v 14.0 10.0 3.0
v 16.0 10.0 3.0
v 16.0 12.0 3.0
v 14.0 12.0 3.0
v 13.0 10.375 3.0
v 17.0 10.375 3.0
v 17.0 12.922852 6.083984
v 13.0 12.922852 6.083984
v 14.0 12.0 3.0
v 16.0 12.0 3.0
v 16.0 14.0 3.0
v 14.0 14.0 3.0
v 13.0 12.375 3.0
v 17.0 12.375 3.0
v 17.0 14.922852 6.083984
v 13.0 14.922852 6.083984
v 14.0 14.0 3.0
v 16.0 14.0 3.0
v 16.0 16.0 3.0
v 14.0 16.0 3.0
v 13.0 14.375 3.0
v 17.0 14.375 3.0
v 17.0 16.922852 6.083984
v 13.0 16.922852 6.083984
v -10.0 -2.125 3.125
v -10.5 -2.125 3.125
v -10.5 -2.625 3.125
v -10.0 -2.625 3.125
v -10.0 1.875 3.125
v -10.5 1.875 3.125
v -10.5 -2.125 3.125
v -10.0 -2.125 3.125
v -10.0 2.375 3.125001
v -10.5 2.375 3.125001
v -10.5 1.875 3.125001
v -10.0 1.875 3.125001
v -4.0 -2.125 3.125
v -10.0 -2.125 3.125
v -10.0 -2.625 3.125
v -4.0 -2.625 3.125
v -4.0 1.875 3.125
v -10.0 1.875 3.125
v -10.0 -2.125 3.125
v -4.0 -2.125 3.125
v -4.0 2.375 3.125001
v -10.0 2.375 3.125001
v -10.0 1.875 3.125001
v -4.0 1.875 3.125001
v -9.0 -8.0 3.0625
v -8.0 -8.0 3.0625
v -8.0 -7.0 3.0625
v -9.0 -7.0 3.0625
v -8.0 -5.0 3.0625
v -7.0 -5.0 3.0625
v -7.0 -4.0 3.0625
v -8.0 -4.0 3.0625
v -7.0 -4.0 3.0625
v -6.0 -4.0 3.0625
v -6.0 -3.0 3.0625
v -7.0 -3.0 3.0625
v -6.0 -7.0 3.0625
v -5.0 -7.0 3.0625
v -5.0 -6.0 3.0625
v -6.0 -6.0 3.0625
v -6.0 -5.0 3.0625
v -5.0 -5.0 3.0625
v -5.0 -4.0 3.0625
v -6.0 -4.0 3.0625
v -5.0 -4.0 3.0625
v -4.0 -4.0 3.0625
v -4.0 -3.0 3.0625
v -5.0 -3.0 3.0625
v -3.5 -2.125 3.125001
v -4.0 -2.125 3.125001
v -4.0 -2.625 3.125
v -3.5 -2.625 3.125
v -3.5 1.875 3.125001
v -4.0 1.875 3.125001
v -4.0 -2.125 3.125001
v -3.5 -2.125 3.125001
v -3.5 2.375 3.125002
v -4.0 2.375 3.125002
v -4.0 1.875 3.125002
v -3.5 1.875 3.125002
v -3.0 -9.0 3.0625
v -2.0 -9.0 3.0625
v -2.0 -8.0 3.0625
v -3.0 -8.0 3.0625
v -2.0 -5.0 3.0625
v -1.0 -5.0 3.0625
v -1.0 -4.0 3.0625
v -2.0 -4.0 3.0625
v -1.5 0.375 3.125002
v -2.0 0.375 3.125002
v -2.0 -0.125 3.125002
v -1.5 -0.125 3.125002
v -1.0 -4.0 3.0625
v 0.0 -4.0 3.0625
v 0.0 -3.0 3.0625
v -1.0 -3.0 3.0625
v 0.0 -12.0 3.0625
v 1.0 -12.0 3.0625
v 1.0 -11.0 3.0625
v 0.0 -11.0 3.0625
v 0.0 -5.0 3.0625
v 1.0 -5.0 3.0625
v 1.0 -4.0 3.0625
v 0.0 -4.0 3.0625
v 1.0 -4.0 3.0625
v 2.0 -4.0 3.0625
v 2.0 -3.0 3.0625
v 1.0 -3.0 3.0625
v 4.0 -7.0 3.0625
v 5.0 -7.0 3.0625
v 5.0 -6.0 3.0625
v 4.0 -6.0 3.0625
v 4.0 -5.0 3.0625
v 5.0 -5.0 3.0625
v 5.0 -4.0 3.0625
v 4.0 -4.0 3.0625
v 5.0 -4.0 3.0625
v 6.0 -4.0 3.0625
v 6.0 -3.0 3.0625
v 5.0 -3.0 3.0625
v 6.0 -5.0 3.0625
v 7.0 -5.0 3.0625
v 7.0 -4.0 3.0625
v 6.0 -4.0 3.0625
v 7.0 -4.0 3.0625
v 8.0 -4.0 3.0625
v 8.0 -3.0 3.0625
v 7.0 -3.0 3.0625
v 10.0 -3.0 3.0625
v 11.0 -3.0 3.0625
v 11.0 -2.0 3.0625
v 10.0 -2.0 3.0625
v 11.0 -8.0 3.0625
v 12.0 -8.0 3.0625
v 12.0 -7.0 3.0625
v 11.0 -7.0 3.0625
v 14.0 -5.0 3.0625
v 15.0 -5.0 3.0625
v 15.0 -4.0 3.0625
v 14.0 -4.0 3.0625
vt 1.0 0.0
vt 0.0 0.0
vt 0.0 -1.0
vt 1.0 -1.0
vt 1.0 0.0
vt 0.0 0.0
vt 0.0 -1.0
vt 1.0 -1.0
vt 1.0 0.0
vt 0.0 0.0
vt 0.0 -1.0
vt 1.0 -1.0
vt 1.0 0.0
vt 0.0 0.0
vt 0.0 -1.0
vt 1.0 -1.0
vt 1.0 0.0
vt 0.0 0.0
vt 0.0 -1.0
vt 1.0 -1.0
vt 1.0 0.0
vt 0.0 0.0
vt 0.0 -1.0
vt 1.0 -1.0
vt 1.0 0.0
vt 0.0 0.0
vt 0.0 -1.0
vt 1.0 -1.0
vt 1.0 0.0
vt 0.0 0.0
vt 0.0 -1.0
vt 1.0 -1.0
vt 4.0 5.0
vt 0.0 5.0
vt 0.0 4.0
vt 4.0 4.0
vt 1.0 0.0
vt 0.0 0.0
vt 0.0 -1.0
vt 1.0 -1.0
vt 1.0 0.0
vt 0.0 0.0
vt 0.0 -1.0
vt 1.0 -1.0
vt 1.0 0.0
vt 0.0 0.0
vt 0.0 -1.0
vt 1.0 -1.0
vt 1.0 0.0
vt 0.0 0.0
vt 0.0 -1.0
vt 1.0 -1.0
vt 1.0 0.0
vt 0.0 0.0
vt 0.0 -1.0
vt 1.0 -1.0
vt 1.0 0.0
vt 0.0 0.0
vt 0.0 -1.0
vt 1.0 -1.0
vt 1.0 0.0
vt 0.0 0.0
vt 0.0 -1.0
vt 1.0 -1.0
vt 1.0 0.0
vt 0.0 0.0
vt 0.0 -1.0
vt 1.0 -1.0
vt 1.0 0.0
vt 0.0 0.0
vt 0.0 -1.0
vt 1.0 -1.0
vt 1.0 0.0
vt 0.0 0.0
vt 0.0 -1.0
vt 1.0 -1.0
vt 1.0 0.0
vt 0.0 0.0
vt 0.0 -1.0
vt 1.0 -1.0
vt 1.0 0.0
vt 0.0 0.0
vt 0.0 -1.0
vt 1.0 -1.0
vt 1.0 0.0
vt 0.0 0.0
vt 0.0 -1.0
vt 1.0 -1.0
vt 1.0 0.0
vt 0.0 0.0
vt 0.0 -1.0
vt 1.0 -1.0
vt 1.0 0.0
vt 0.0 0.0
vt 0.0 -1.0
vt 1.0 -1.0
vt 1.0 0.0
vt 0.0 0.0
vt 0.0 -1.0
vt 1.0 -1.0
vt 1.0 0.0
vt 0.0 0.0
vt 0.0 -1.0
vt 1.0 -1.0
vt 1.0 0.0
vt 0.0 0.0
vt 0.0 -1.0
vt 1.0 -1.0
vt 1.0 0.0
vt 0.0 0.0
vt 0.0 -1.0
vt 1.0 -1.0
vt 1.0 0.0
vt 0.0 0.0
vt 0.0 -1.0
vt 1.0 -1.0
vt 1.0 0.0
vt 0.0 0.0
vt 0.0 -1.0
vt 1.0 -1.0
vt 1.0 0.0
vt 0.0 0.0
vt 0.0 -1.0
vt 1.0 -1.0
vt -0.0 0.0
vt -4.0 0.0
vt -4.0 -1.0
vt 0.0 -1.0
vt 2.0 0.0
vt 0.0 0.0
vt 0.0 -1.0
vt 2.0 -1.0
vt -0.0 0.0
vt -4.0 0.0
vt -4.0 -1.0
vt 0.0 -1.0
vt 2.0 0.0
vt 0.0 0.0
vt 0.0 -1.0
vt 2.0 -1.0
vt -0.0 0.0
vt -3.0 0.0
vt -3.0 -1.0
vt 0.0 -1.0
vt 1.5 0.0
vt 0.0 0.0
vt 0.0 -1.0
vt 1.5 -1.0
vt -0.0 0.0
vt -1.0 0.0
vt -1.0 -1.0
vt 0.0 -1.0
vt 0.5 0.0
vt 0.0 0.0
vt 0.0 -1.0
vt 0.5 -1.0
vt -0.0 0.0
vt -1.0 0.0
vt -1.0 -1.0
vt 0.0 -1.0
vt 0.5 0.0
vt 0.0 0.0
vt 0.0 -1.0
vt 0.5 -1.0
vt -0.0 0.0
vt -1.0 0.0
vt -1.0 -1.0
vt 0.0 -1.0
vt 0.5 0.0
vt 0.0 0.0
vt 0.0 -1.0
vt 0.5 -1.0
vt -0.0 0.0
vt -1.0 0.0
vt -1.0 -1.0
vt 0.0 -1.0
vt 0.5 0.0
vt 0.0 0.0
vt 0.0 -1.0
vt 0.5 -1.0
vt -0.0 0.0
vt -1.0 0.0
vt -1.0 -1.0
vt 0.0 -1.0
vt 0.5 0.0
vt 0.0 0.0
vt 0.0 -1.0
vt 0.5 -1.0
vt -0.0 0.0
vt -8.0 0.0
vt -8.0 -1.0
vt 0.0 -1.0
vt 4.0 0.0
vt 0.0 0.0
vt 0.0 -1.0
vt 4.0 -1.0
vt -0.0 0.0
vt -8.0 0.0
vt -8.0 -1.0
vt 0.0 -1.0
vt 4.0 0.0
vt 0.0 0.0
vt 0.0 -1.0
vt 4.0 -1.0
vt -0.0 0.0
vt -8.0 0.0
vt -8.0 -1.0
vt 0.0 -1.0
vt 4.0 0.0
vt 0.0 0.0
vt 0.0 -1.0
vt 4.0 -1.0
vt -0.0 0.0
vt -8.0 0.0
vt -8.0 -1.0
vt 0.0 -1.0
vt 4.0 0.0
vt 0.0 0.0
vt 0.0 -1.0
vt 4.0 -1.0
vt -0.0 0.0
vt -8.0 0.0
vt -8.0 -1.0
vt 0.0 -1.0
vt 4.0 0.0
vt 0.0 0.0
vt 0.0 -1.0
vt 4.0 -1.0
vt -0.0 0.0
vt -8.0 0.0
vt -8.0 -1.0
vt 0.0 -1.0
vt 4.0 0.0
vt 0.0 0.0
vt 0.0 -1.0
vt 4.0 -1.0
vt -0.0 0.0
vt -8.0 0.0
vt -8.0 -1.0
vt 0.0 -1.0
vt 4.0 0.0
vt 0.0 0.0
vt 0.0 -1.0
vt 4.0 -1.0
vt 1.0 0.0
vt 0.0 0.0
vt 0.0 -1.0
vt 1.0 -1.0
vt 1.0 0.0
vt 0.0 0.0
vt 0.0 -1.0
vt 1.0 -1.0
vt 1.0 0.0
vt 0.0 0.0
vt 0.0 -1.0
vt 1.0 -1.0
vt 1.0 0.0
vt 0.0 0.0
vt 0.0 -1.0
vt 1.0 -1.0
vt 1.0 0.0
vt 0.0 0.0
vt 0.0 -1.0
vt 1.0 -1.0
vt 1.0 0.0
vt 0.0 0.0
vt 0.0 -1.0
vt 1.0 -1.0
vt 1.0 0.0
vt 0.0 0.0
vt 0.0 -1.0
vt 1.0 -1.0
vt 1.0 0.0
vt 0.0 0.0
vt 0.0 -1.0
vt 1.0 -1.0
vt 1.0 0.0
vt 0.0 0.0
vt 0.0 -1.0
vt 1.0 -1.0
vt 1.0 0.0
vt 0.0 0.0
vt 0.0 -1.0
vt 1.0 -1.0
vt 6.0 3.5
vt 3.0 3.5
vt 3.0 3.0
vt 6.0 3.0
vt 4.0 4.0
vt 3.0 4.0
vt 3.0 3.5
vt 4.0 3.5
vt 4.0 9.0
vt 3.0 9.0
vt 3.0 5.0
vt 4.0 5.0
vt 1.0 0.0
vt 0.0 0.0
vt 0.0 -1.0
vt 1.0 -1.0
vt 1.0 0.0
vt 0.0 0.0
vt 0.0 -1.0
vt 1.0 -1.0
vt 0.505859 -0.992188
vt 0.986328 -0.992188
vt 0.986328 -0.505859
vt 0.505859 -0.505859
vt 0.011719 0.0
vt 0.488281 0.0
vt 0.488281 1.0
vt 0.011719 1.0
vt 0.505859 -0.992188
vt 0.986328 -0.992188
vt 0.986328 -0.505859
vt 0.505859 -0.505859
vt 8.0 7.0
vt 4.0 7.0
vt 4.0 5.5
vt 8.0 5.5
vt 7.0 9.0
vt 4.0 9.0
vt 4.0 7.0
vt 7.0 7.0
vt 0.011719 1.5
vt 0.011719 0.0
vt 0.488281 1.5
vt 0.488281 0.0
vt 4.5 5.0
vt 4.5 4.0
vt 8.5 5.0
vt 8.5 4.0
vt 0.011719 4.0
vt 0.011719 0.0
vt 0.488281 4.0
vt 0.488281 0.0
vt 1.0 0.0
vt 0.0 0.0
vt 0.0 -1.0
vt 1.0 -1.0
vt 1.0 0.0
vt 0.0 0.0
vt 0.0 -1.0
vt 1.0 -1.0
vt 1.0 0.0
vt 0.0 0.0
vt 0.0 -1.0
vt 1.0 -1.0
vt 1.0 0.0
vt 0.0 0.0
vt 0.0 -1.0
vt 1.0 -1.0
vt 6.0 3.0
vt 5.0 3.0
vt 5.0 2.0
vt 6.0 2.0
vt 0.505859 -0.992188
vt 0.986328 -0.992188
vt 0.986328 -0.505859
vt 0.505859 -0.505859
vt 0.011719 0.0
vt 0.488281 0.0
vt 0.488281 3.0
vt 0.011719 3.0
vt 0.986328 -0.007812
vt 0.507812 -0.492188
vt 0.507812 -0.007812
vt 0.986328 -0.492188
vt 0.011719 2.0
vt 0.488281 2.0
vt 0.488281 4.0
vt 0.011719 4.0
vt 6.5 4.0
vt 6.5 0.5
vt 8.5 4.0
vt 8.5 0.5
vt 1.0 0.0
vt 0.0 0.0
vt 0.0 -1.0
vt 1.0 -1.0
vt 1.0 0.0
vt 0.0 0.0
vt 0.0 -1.0
vt 1.0 -1.0
vt 1.0 0.0
vt 0.0 0.0
vt 0.0 -1.0
vt 1.0 -1.0
vt 1.0 0.0
vt 0.0 0.0
vt 0.0 -1.0
vt 1.0 -1.0
vt 12.0 7.0
vt 8.0 7.0
vt 8.0 5.5
vt 12.0 5.5
vt -0.0 0.0
vt -7.0 0.0
vt -7.0 -1.0
vt 0.0 -1.0
vt 3.5 0.0
vt 0.0 0.0
vt 0.0 -1.0
vt 3.5 -1.0
vt -0.0 0.0
vt -7.0 0.0
vt -7.0 -1.0
vt 0.0 -1.0
vt 3.5 0.0
vt 0.0 0.0
vt 0.0 -1.0
vt 3.5 -1.0
vt 0.505859 -0.992188
vt 0.986328 -0.992188
vt 0.986328 -0.505859
vt 0.505859 -0.505859
vt 0.011719 3.0
vt 0.011719 0.0
vt 0.488281 3.0
vt 0.488281 0.0
vt 0.986328 -0.007812
vt 0.507812 -0.492188
vt 0.507812 -0.007812
vt 0.986328 -0.492188
vt 12.5 5.0
vt 8.5 5.0
vt 8.5 4.0
vt 12.5 4.0
vt 0.011719 4.0
vt 0.011719 0.0
vt 0.488281 4.0
vt 0.488281 0.0
vt 1.0 0.0
vt 0.0 0.0
vt 0.0 -1.0
vt 1.0 -1.0
vt 1.0 0.0
vt 0.0 0.0
vt 0.0 -1.0
vt 1.0 -1.0
vt 1.0 0.0
vt 0.0 0.0
vt 0.0 -1.0
vt 1.0 -1.0
vt 1.0 0.0
vt 0.0 0.0
vt 0.0 -1.0
vt 1.0 -1.0
vt 10.0 3.5
vt 9.0 3.5
vt 9.0 2.0
vt 10.0 2.0
vt 0.011719 4.0
vt 0.011719 0.0
vt 0.488281 4.0
vt 0.488281 0.0
vt -0.0 0.0
vt -6.0 0.0
vt -6.0 -1.0
vt 0.0 -1.0
vt 3.0 0.0
vt 0.0 0.0
vt 0.0 -1.0
vt 3.0 -1.0
vt -0.0 0.0
vt -6.0 0.0
vt -6.0 -1.0
vt 0.0 -1.0
vt 3.0 0.0
vt 0.0 0.0
vt 0.0 -1.0
vt 3.0 -1.0
vt -0.0 0.0
vt -6.0 0.0
vt -6.0 -1.0
vt 0.0 -1.0
vt 3.0 0.0
vt 0.0 0.0
vt 0.0 -1.0
vt 3.0 -1.0
vt -0.0 0.0
vt -6.0 0.0
vt -6.0 -1.0
vt 0.0 -1.0
vt 3.0 0.0
vt 0.0 0.0
vt 0.0 -1.0
vt 3.0 -1.0
vt -0.0 0.0
vt -6.0 0.0
vt -6.0 -1.0
vt 0.0 -1.0
vt 3.0 0.0
vt 0.0 0.0
vt 0.0 -1.0
vt 3.0 -1.0
vt -0.0 0.0
vt -6.0 0.0
vt -6.0 -1.0
vt 0.0 -1.0
vt 3.0 0.0
vt 0.0 0.0
vt 0.0 -1.0
vt 3.0 -1.0
vt -0.0 0.0
vt -6.0 0.0
vt -6.0 -1.0
vt 0.0 -1.0
vt 3.0 0.0
vt 0.0 0.0
vt 0.0 -1.0
vt 3.0 -1.0
vt -0.0 0.0
vt -5.0 0.0
vt -5.0 -1.0
vt 0.0 -1.0
vt 2.5 0.0
vt 0.0 0.0
vt 0.0 -1.0
vt 2.5 -1.0
vt -0.0 0.0
vt -5.0 0.0
vt -5.0 -1.0
vt 0.0 -1.0
vt 2.5 0.0
vt 0.0 0.0
vt 0.0 -1.0
vt 2.5 -1.0
vt 1.0 0.0
vt 0.0 0.0
vt 0.0 -1.0
vt 1.0 -1.0
vt 1.0 0.0
vt 0.0 0.0
vt 0.0 -1.0
vt 1.0 -1.0
vt 14.0 3.5
vt 10.0 3.5
vt 10.0 3.0
vt 14.0 3.0
vt -0.0 0.0
vt -4.0 0.0
vt -4.0 -1.0
vt 0.0 -1.0
vt 2.0 0.0
vt 0.0 0.0
vt 0.0 -1.0
vt 2.0 -1.0
vt 16.0 6.0
vt 12.0 6.0
vt 12.0 5.5
vt 16.0 5.5
vt 15.0 7.0
vt 12.0 7.0
vt 12.0 6.0
vt 15.0 6.0
vt 16.0 5.0
vt 16.0 4.0
vt 12.5 5.0
vt 12.5 4.0
vt 0.011719 3.5
vt 0.011719 0.0
vt 0.488281 3.5
vt 0.488281 0.0
vt 0.011719 3.0
vt 0.011719 0.0
vt 0.488281 3.0
vt 0.488281 0.0
vt 16.0 3.5
vt 14.0 3.5
vt 14.0 3.0
vt 16.0 3.0
vt 1.0 0.0
vt 0.0 0.0
vt 0.0 -1.0
vt 1.0 -1.0
vt 1.0 0.0
vt 0.0 0.0
vt 0.0 -1.0
vt 1.0 -1.0
vt 1.0 0.0
vt 0.0 0.0
vt 0.0 -1.0
vt 1.0 -1.0
vt 1.0 0.0
vt 0.0 0.0
vt 0.0 -1.0
vt 1.0 -1.0
vt 1.0 0.0
vt 0.0 0.0
vt 0.0 -1.0
vt 1.0 -1.0
vt 1.0 0.0
vt 0.0 0.0
vt 0.0 -1.0
vt 1.0 -1.0
vt 1.0 0.0
vt 0.0 0.0
vt 0.0 -1.0
vt 1.0 -1.0
vt 1.0 0.0
vt 0.0 0.0
vt 0.0 -1.0
vt 1.0 -1.0
vt 1.0 0.0
vt 0.0 0.0
vt 0.0 -1.0
vt 1.0 -1.0
vt 1.0 0.0
vt 0.0 0.0
vt 0.0 -1.0
vt 1.0 -1.0
vt 1.0 0.0
vt 0.0 0.0
vt 0.0 -1.0
vt 1.0 -1.0
vt 1.0 0.0
vt 0.0 0.0
vt 0.0 -1.0
vt 1.0 -1.0
vt 1.0 0.0
vt 0.0 0.0
vt 0.0 -1.0
vt 1.0 -1.0
vt 1.0 0.0
vt 0.0 0.0
vt 0.0 -1.0
vt 1.0 -1.0
vt 1.0 0.0
vt 0.0 0.0
vt 0.0 -1.0
vt 1.0 -1.0
vt 1.0 0.0
vt 0.0 0.0
vt 0.0 -1.0
vt 1.0 -1.0
vt 1.0 0.0
vt 0.0 0.0
vt 0.0 -1.0
vt 1.0 -1.0
vt 1.0 0.0
vt 0.0 0.0
vt 0.0 -1.0
vt 1.0 -1.0
vt 1.0 0.0
vt 0.0 0.0
vt 0.0 -1.0
vt 1.0 -1.0
vt 1.0 0.0
vt 0.0 0.0
vt 0.0 -1.0
vt 1.0 -1.0
vt 1.0 0.0
vt 0.0 0.0
vt 0.0 -1.0
vt 1.0 -1.0
vt 1.0 0.0
vt 0.0 0.0
vt 0.0 -1.0
vt 1.0 -1.0
vt 1.0 0.0
vt 0.0 0.0
vt 0.0 -1.0
vt 1.0 -1.0
vt 1.0 0.0
vt 0.0 0.0
vt 0.0 -1.0
vt 1.0 -1.0
vt 1.0 0.0
vt 0.0 0.0
vt 0.0 -1.0
vt 1.0 -1.0
vt 1.0 0.0
vt 0.0 0.0
vt 0.0 -1.0
vt 1.0 -1.0
vt 0.5 -0.5
vt 0.0 -0.5
vt 0.0 -1.0
vt 0.5 -1.0
vt 0.5 4.0
vt 0.0 4.0
vt 0.0 0.0
vt 0.5 0.0
vt 0.5 0.0
vt 0.0 0.0
vt 0.0 -0.5
vt 0.5 -0.5
vt -18.0 -0.5
vt -24.0 -0.5
vt -24.0 -1.0
vt -18.0 -1.0
vt 6.0 4.0
vt 0.0 4.0
vt 0.0 0.0
vt 6.0 0.0
vt -18.0 0.0
vt -24.0 0.0
vt -24.0 -0.5
vt -18.0 -0.5
vt 1.0 0.0
vt 0.0 0.0
vt 0.0 -1.0
vt 1.0 -1.0
vt 1.0 0.0
vt 0.0 0.0
vt 0.0 -1.0
vt 1.0 -1.0
vt 1.0 0.0
vt 0.0 0.0
vt 0.0 -1.0
vt 1.0 -1.0
vt 1.0 0.0
vt 0.0 0.0
vt 0.0 -1.0
vt 1.0 -1.0
vt 1.0 0.0
vt 0.0 0.0
vt 0.0 -1.0
vt 1.0 -1.0
vt 1.0 0.0
vt 0.0 0.0
vt 0.0 -1.0
vt 1.0 -1.0
vt 1.0 -0.5
vt 0.5 -0.5
vt 0.5 -1.0
vt 1.0 -1.0
vt 1.0 8.0
vt 0.5 8.0
vt 0.5 4.0
vt 1.0 4.0
vt 1.0 0.0
vt 0.5 0.0
vt 0.5 -0.5
vt 1.0 -0.5
vt 1.0 0.0
vt 0.0 0.0
vt 0.0 -1.0
vt 1.0 -1.0
vt 1.0 0.0
vt 0.0 0.0
vt 0.0 -1.0
vt 1.0 -1.0
vt 1.0 0.0
vt 0.5 0.0
vt 0.5 -0.5
vt 1.0 -0.5
vt 1.0 0.0
vt 0.0 0.0
vt 0.0 -1.0
vt 1.0 -1.0
vt 1.0 0.0
vt 0.0 0.0
vt 0.0 -1.0
vt 1.0 -1.0
vt 1.0 0.0
vt 0.0 0.0
vt 0.0 -1.0
vt 1.0 -1.0
vt 1.0 0.0
vt 0.0 0.0
vt 0.0 -1.0
vt 1.0 -1.0
vt 1.0 0.0
vt 0.0 0.0
vt 0.0 -1.0
vt 1.0 -1.0
vt 1.0 0.0
vt 0.0 0.0
vt 0.0 -1.0
vt 1.0 -1.0
vt 1.0 0.0
vt 0.0 0.0
vt 0.0 -1.0
vt 1.0 -1.0
vt 1.0 0.0
vt 0.0 0.0
vt 0.0 -1.0
vt 1.0 -1.0
vt 1.0 0.0
vt 0.0 0.0
vt 0.0 -1.0
vt 1.0 -1.0
vt 1.0 0.0
vt 0.0 0.0
vt 0.0 -1.0
vt 1.0 -1.0
vt 1.0 0.0
vt 0.0 0.0
vt 0.0 -1.0
vt 1.0 -1.0
vt 1.0 0.0
vt 0.0 0.0
vt 0.0 -1.0
vt 1.0 -1.0
vn 0.0 -0.0 1.0
vn 0.0 -0.7714 0.6364
vn 0.0 -0.7712 0.6365
vn 0.0 -0.0 1.0
vn 0.0 -0.7714 0.6364
vn 0.0 -0.7712 0.6365
vn 0.0 -0.0 1.0
vn 0.0 -0.7714 0.6364
vn 0.0 -0.7712 0.6365
vn 0.0 -0.0 1.0
vn 0.0 -0.7714 0.6364
vn 0.0 -0.7712 0.6365
vn -0.0 -0.0 1.0
vn 0.0 -0.0 1.0
vn 0.0 -0.7714 0.6364
vn 0.0 -0.7712 0.6365
vn 0.0 -0.0 1.0
vn 0.0 -0.7714 0.6364
vn 0.0 -0.7712 0.6365
vn 0.0 -0.0 1.0
vn 0.0 -0.7714 0.6364
vn 0.0 -0.7712 0.6365
vn 0.0 -0.0 1.0
vn 0.0 -0.7714 0.6364
vn 0.0 -0.7712 0.6365
vn 0.0 -0.0 1.0
vn 0.0 -0.7714 0.6364
vn 0.0 -0.7712 0.6365
vn 0.0 -0.0 1.0
vn 0.0 -0.7714 0.6364
vn 0.0 -0.7712 0.6365
vn 0.0 -0.0 1.0
vn 0.0 -0.7714 0.6364
vn 0.0 -0.7712 0.6365
vn 0.0 -0.0 1.0
vn 0.0 -0.7714 0.6364
vn 0.0 -0.7712 0.6365
vn 0.0 -0.0 1.0
vn 0.0 -0.7714 0.6364
vn 0.0 -0.7712 0.6365
vn 0.0 -0.0 1.0
vn 0.0 -0.7714 0.6364
vn 0.0 -0.7712 0.6365
vn 0.0 -0.0 1.0
vn 0.0 -0.7714 0.6364
vn 0.0 -0.7712 0.6365
vn 0.0 -0.0 1.0
vn 0.0 -0.7712 0.6365
vn 0.0 -0.0 1.0
vn 0.0 -0.7712 0.6365
vn 0.0 -0.0 1.0
vn 0.0 -0.7712 0.6365
vn 0.0 -0.0 1.0
vn 0.0 -0.7712 0.6365
vn 0.0 -0.0 1.0
vn 0.0 -0.7712 0.6365
vn 0.0 -0.0 1.0
vn 0.0 -0.7712 0.6365
vn 0.0 -0.0 1.0
vn 0.0 -0.7712 0.6365
vn 0.0 -0.0 1.0
vn 0.0 -0.7712 0.6365
vn 0.0 -0.0 1.0
vn 0.0 -0.7712 0.6365
vn 0.0 -0.0 1.0
vn 0.0 -0.7712 0.6365
vn 0.0 -0.0 1.0
vn 0.0 -0.7712 0.6365
vn 0.0 -0.0 1.0
vn 0.0 -0.7712 0.6365
vn 0.0 -0.0 1.0
vn 0.0 -0.7712 0.6365
vn 0.0 -0.0 1.0
vn 0.0 -0.7712 0.6365
vn 0.0 -0.0 1.0
vn 0.0 -0.7712 0.6365
vn 0.0 -0.0 1.0
vn 0.0 -0.7714 0.6364
vn 0.0 -0.7712 0.6365
vn 0.0 -0.0 1.0
vn 0.0 -0.7714 0.6364
vn 0.0 -0.7712 0.6365
vn 0.0 -0.0 1.0
vn 0.0 -0.7714 0.6364
vn 0.0 -0.7712 0.6365
vn 0.0 -0.0 1.0
vn 0.0 -0.7714 0.6364
vn 0.0 -0.7712 0.6365
vn 0.0 -0.0 1.0
vn 0.0 -0.7714 0.6364
vn 0.0 -0.7712 0.6365
vn -0.0 -0.0 1.0
vn -0.0 -0.0 1.0
vn -0.0 -0.0 1.0
vn 0.0 -0.0 1.0
vn 0.0 -0.7714 0.6364
vn 0.0 -0.7712 0.6365
vn -0.0 0.0 1.0
vn 0.0 -0.0 1.0
vn 0.0 -0.0 1.0
vn -0.0 -0.0 1.0
vn -0.0 -0.0 1.0
vn 0.0 -0.0 1.0
vn -0.0 -0.0 1.0
vn -0.0 0.0 1.0
vn 0.0 -0.0 1.0
vn 0.0 -0.7714 0.6364
vn 0.0 -0.7712 0.6365
vn 0.0 -0.0 1.0
vn 0.0 -0.7714 0.6364
vn 0.0 -0.7712 0.6365
vn -0.0 -0.0 1.0
vn -0.0 0.0 1.0
vn 0.0 -0.0 1.0
vn 0.0 -0.0 1.0
vn 0.0 -0.0 1.0
vn -0.0 -0.0 1.0
vn 0.0 -0.0 1.0
vn 0.0 -0.7714 0.6364
vn 0.0 -0.7712 0.6365
vn 0.0 -0.0 1.0
vn 0.0 -0.7714 0.6364
vn 0.0 -0.7712 0.6365
vn -0.0 -0.0 1.0
vn 0.0 -0.0 1.0
vn 0.0 -0.7712 0.6365
vn 0.0 -0.0 1.0
vn 0.0 -0.7712 0.6365
vn -0.0 -0.0 1.0
vn 0.0 0.0 1.0
vn 0.0 0.0 1.0
vn -0.0 -0.0 1.0
vn -0.0 0.0 1.0
vn 0.0 -0.0 1.0
vn 0.0 -0.7714 0.6364
vn 0.0 -0.7712 0.6365
vn 0.0 -0.0 1.0
vn 0.0 -0.7714 0.6364
vn 0.0 -0.7712 0.6365
vn -0.0 -0.0 1.0
vn 0.0 -0.0 1.0
vn 0.0 -0.0 1.0
vn 0.0 -0.7712 0.6365
vn 0.0 -0.0 1.0
vn 0.0 -0.7712 0.6365
vn 0.0 -0.0 1.0
vn 0.0 -0.7712 0.6365
vn 0.0 -0.0 1.0
vn 0.0 -0.7712 0.6365
vn 0.0 -0.0 1.0
vn 0.0 -0.7712 0.6365
vn 0.0 -0.0 1.0
vn 0.0 -0.7712 0.6365
vn 0.0 -0.0 1.0
vn 0.0 -0.7712 0.6365
vn 0.0 -0.0 1.0
vn 0.0 -0.7712 0.6365
vn 0.0 -0.0 1.0
vn 0.0 -0.7712 0.6365
vn 0.0 -0.0 1.0
vn 0.0 -0.7714 0.6364
vn 0.0 -0.7712 0.6365
vn -0.0 -0.0 1.0
vn 0.0 -0.0 1.0
vn 0.0 -0.7712 0.6365
vn -0.0 -0.0 1.0
vn -0.0 -0.0 1.0
vn -0.0 -0.0 1.0
vn -0.0 0.0 1.0
vn 0.0 -0.0 1.0
vn -0.0 -0.0 1.0
vn 0.0 -0.0 1.0
vn 0.0 -0.7714 0.6364
vn 0.0 -0.7712 0.6365
vn 0.0 -0.0 1.0
vn 0.0 -0.7714 0.6364
vn 0.0 -0.7712 0.6365
vn 0.0 -0.0 1.0
vn 0.0 -0.7714 0.6364
vn 0.0 -0.7712 0.6365
vn 0.0 -0.0 1.0
vn 0.0 -0.7714 0.6364
vn 0.0 -0.7712 0.6365
vn 0.0 -0.0 1.0
vn 0.0 -0.7714 0.6364
vn 0.0 -0.7712 0.6365
vn 0.0 -0.0 1.0
vn 0.0 -0.7714 0.6364
vn 0.0 -0.7712 0.6365
vn 0.0 -0.0 1.0
vn 0.0 -0.7714 0.6364
vn 0.0 -0.7712 0.6365
vn 0.0 -0.0 1.0
vn 0.0 -0.7714 0.6364
vn 0.0 -0.7712 0.6365
vn 0.0 -0.0 1.0
vn 0.0 -0.7714 0.6364
vn 0.0 -0.7712 0.6365
vn 0.0 -0.0 1.0
vn 0.0 -0.7714 0.6364
vn 0.0 -0.7712 0.6365
vn 0.0 -0.0 1.0
vn 0.0 -0.7714 0.6364
vn 0.0 -0.7712 0.6365
vn 0.0 -0.0 1.0
vn 0.0 -0.7714 0.6364
vn 0.0 -0.7712 0.6365
vn 0.0 -0.0 1.0
vn 0.0 -0.7714 0.6364
vn 0.0 -0.7712 0.6365
vn 0.0 0.0 1.0
vn 0.0 0.0 1.0
vn 0.0 0.0 1.0
vn 0.0 0.0 1.0
vn 0.0 0.0 1.0
vn 0.0 0.0 1.0
vn 0.0 -0.0 1.0
vn 0.0 -0.0 1.0
vn 0.0 -0.0 1.0
vn 0.0 -0.0 1.0
vn 0.0 -0.0 1.0
vn 0.0 -0.0 1.0
vn 0.0 -0.0 1.0
vn 0.0 0.0 1.0
vn 0.0 0.0 1.0
vn 0.0 -0.0 1.0
vn 0.0 -0.0 1.0
vn 0.0 0.0 1.0
vn 0.0 -0.0 1.0
vn 0.0 -0.0 1.0
vn 0.0 -0.0 1.0
vn 0.0 -0.0 1.0
vn 0.0 -0.0 1.0
vn 0.0 -0.0 1.0
vn 0.0 -0.0 1.0
vn 0.0 -0.0 1.0
vn 0.0 -0.0 1.0
vn 0.0 -0.0 1.0
vn 0.0 -0.0 1.0
vn 0.0 -0.0 1.0
c 1.0 1.0 1.0
c 1.0 1.0 1.0
c 1.0 1.0 1.0
c 1.0 1.0 1.0
c 1.0 1.0 1.0
c 1.0 1.0 1.0
c 1.0 1.0 1.0
c 1.0 1.0 1.0
c 1.0 1.0 1.0
c 1.0 1.0 1.0
c 1.0 1.0 1.0
c 1.0 1.0 1.0
c 1.0 1.0 1.0
c 1.0 1.0 1.0
c 1.0 1.0 1.0
c 1.0 1.0 1.0
c 1.0 1.0 1.0
c 1.0 1.0 1.0
c 1.0 1.0 1.0
c 1.0 1.0 1.0
c 1.0 1.0 1.0
c 1.0 1.0 1.0
c 1.0 1.0 1.0
c 1.0 1.0 1.0
c 1.0 1.0 1.0
c 1.0 1.0 1.0
c 1.0 1.0 1.0
c 1.0 1.0 1.0
c 1.0 1.0 1.0
c 1.0 1.0 1.0
c 1.0 1.0 1.0
c 1.0 1.0 1.0
c 1.0 1.0 1.0
c 1.0 1.0 1.0
c 1.0 1.0 1.0
c 1.0 1.0 1.0
c 1.0 1.0 1.0
c 1.0 1.0 1.0
c 1.0 1.0 1.0
c 1.0 1.0 1.0
c 1.0 1.0 1.0
c 1.0 1.0 1.0
c 1.0 1.0 1.0
c 1.0 1.0 1.0
c 1.0 1.0 1.0
c 1.0 1.0 1.0
c 1.0 1.0 1.0
c 1.0 1.0 1.0
c 1.0 1.0 1.0
c 1.0 1.0 1.0
c 1.0 1.0 1.0
c 1.0 1.0 1.0
c 1.0 1.0 1.0
c 1.0 1.0 1.0
c 1.0 1.0 1.0
c 1.0 1.0 1.0
c 1.0 1.0 1.0
c 1.0 1.0 1.0
c 1.0 1.0 1.0
c 1.0 1.0 1.0
c 1.0 1.0 1.0
c 1.0 1.0 1.0
c 1.0 1.0 1.0
c 1.0 1.0 1.0
c 1.0 1.0 1.0
c 1.0 1.0 1.0
c 1.0 1.0 1.0
c 1.0 1.0 1.0
c 1.0 1.0 1.0
c 1.0 1.0 1.0
c 1.0 1.0 1.0
c 1.0 1.0 1.0
c 1.0 1.0 1.0
c 1.0 1.0 1.0
c 1.0 1.0 1.0
c 1.0 1.0 1.0
c 1.0 1.0 1.0
c 1.0 1.0 1.0
c 1.0 1.0 1.0
c 1.0 1.0 1.0
c 1.0 1.0 1.0
c 1.0 1.0 1.0
c 1.0 1.0 1.0
c 1.0 1.0 1.0
c 1.0 1.0 1.0
c 1.0 1.0 1.0
c 1.0 1.0 1.0
c 1.0 1.0 1.0
c 1.0 1.0 1.0
c 1.0 1.0 1.0
c 1.0 1.0 1.0
c 1.0 1.0 1.0
c 1.0 1.0 1.0
c 1.0 1.0 1.0
c 1.0 1.0 1.0
c 1.0 1.0 1.0
c 1.0 1.0 1.0
c 1.0 1.0 1.0
c 1.0 1.0 1.0
c 1.0 1.0 1.0
c 1.0 1.0 1.0
c 1.0 1.0 1.0
c 1.0 1.0 1.0
c 1.0 1.0 1.0
c 1.0 1.0 1.0
c 1.0 1.0 1.0
c 1.0 1.0 1.0
c 1.0 1.0 1.0
c 1.0 1.0 1.0
c 1.0 1.0 1.0
c 1.0 1.0 1.0
c 1.0 1.0 1.0
c 1.0 1.0 1.0
c 1.0 1.0 1.0
c 1.0 1.0 1.0
c 1.0 1.0 1.0
c 1.0 1.0 1.0
c 1.0 1.0 1.0
c 1.0 1.0 1.0
c 1.0 1.0 1.0
c 1.0 1.0 1.0
c 1.0 1.0 1.0
c 1.0 1.0 1.0
c 1.0 1.0 1.0
c 1.0 1.0 1.0
c 1.0 1.0 1.0
c 1.0 1.0 1.0
c 1.0 1.0 1.0
c 1.0 1.0 1.0
c 1.0 1.0 1.0
c 1.0 1.0 1.0
usemtl road01_r
s off
f 305/305/98/41 306/306/98/41 307/307/98/41 308/308/98/41
f 309/309/99/42 310/310/99/42 312/311/99/42 311/312/99/42
f 313/313/100/43 314/314/100/43 315/315/100/43 316/316/100/43
f 325/327/103/46 326/325/103/46 327/326/103/46 328/328/103/46
f 333/335/105/48 334/333/105/48 335/334/105/48 336/336/105/48
f 357/357/113/52 358/358/113/52 359/359/113/52 360/360/113/52
f 361/361/114/53 362/362/114/53 364/363/114/53 363/364/114/53
f 365/365/115/54 366/367/115/54 367/366/115/54 368/368/115/54
f 371/369/116/55 372/370/116/55 369/371/116/55 370/372/116/55
f 413/413/129/62 414/414/129/62 415/415/129/62 416/416/129/62
f 417/419/130/63 418/417/130/63 419/418/130/63 420/420/130/63
f 421/421/131/64 422/423/131/64 423/422/131/64 424/424/131/64
f 429/431/133/66 430/429/133/66 431/430/133/66 432/432/133/66
f 453/455/141/70 454/453/141/70 455/454/141/70 456/456/141/70
f 561/563/169/86 562/561/169/86 563/562/169/86 564/564/169/86
f 565/567/170/87 566/565/170/87 567/566/170/87 568/568/170/87
usemtl grass01
s off
f 33/33/13/5 34/34/13/5 35/35/13/5 36/36/13/5
f 285/285/92/37 286/286/92/37 287/287/92/37 288/288/92/37
f 289/289/93/38 290/290/93/38 291/291/93/38 292/292/93/38
f 293/293/94/39 294/294/94/39 295/295/94/39 296/296/94/39
f 317/317/101/44 318/318/101/44 319/319/101/44 320/320/101/44
f 321/321/102/45 322/322/102/45 323/323/102/45 324/324/102/45
f 353/353/112/51 354/354/112/51 355/355/112/51 356/356/112/51
f 393/393/124/59 394/394/124/59 395/395/124/59 396/396/124/59
f 449/449/140/69 450/450/140/69 451/451/140/69 452/452/140/69
f 537/537/163/81 538/538/163/81 539/539/163/81 540/540/163/81
f 549/549/166/83 550/550/166/83 551/551/166/83 552/552/166/83
f 553/553/167/84 554/554/167/84 555/555/167/84 556/556/167/84
f 569/569/171/88 570/570/171/88 571/571/171/88 572/572/171/88
usemtl road01
s off
f 329/331/104/47 330/329/104/47 331/330/104/47 332/332/104/47
f 373/375/117/56 374/373/117/56 375/374/117/56 376/376/117/56
f 425/425/132/65 426/426/132/65 427/427/132/65 428/428/132/65
f 557/557/168/85 558/559/168/85 559/560/168/85 560/558/168/85
usemtl tree01_un
s off
f 3/1/1/1 4/2/1/1 1/3/1/1 2/4/1/1
f 11/9/4/2 12/10/4/2 9/11/4/2 10/12/4/2
f 19/17/7/3 20/18/7/3 17/19/7/3 18/20/7/3
f 27/25/10/4 28/26/10/4 25/27/10/4 26/28/10/4
f 39/37/14/6 40/38/14/6 37/39/14/6 38/40/14/6
f 47/45/17/7 48/46/17/7 45/47/17/7 46/48/17/7
f 55/53/20/8 56/54/20/8 53/55/20/8 54/56/20/8
f 63/61/23/9 64/62/23/9 61/63/23/9 62/64/23/9
f 71/69/26/10 72/70/26/10 69/71/26/10 70/72/26/10
f 79/77/29/11 80/78/29/11 77/79/29/11 78/80/29/11
f 87/85/32/12 88/86/32/12 85/87/32/12 86/88/32/12
f 95/93/35/13 96/94/35/13 93/95/35/13 94/96/35/13
f 103/101/38/14 104/102/38/14 101/103/38/14 102/104/38/14
f 111/109/41/15 112/110/41/15 109/111/41/15 110/112/41/15
f 119/117/44/16 120/118/44/16 117/119/44/16 118/120/44/16
f 131/125/47/17 132/126/47/17 129/127/47/17 130/128/47/17
f 139/133/49/18 140/134/49/18 137/135/49/18 138/136/49/18
f 147/141/51/19 148/142/51/19 145/143/51/19 146/144/51/19
f 155/149/53/20 156/150/53/20 153/151/53/20 154/152/53/20
f 163/157/55/21 164/158/55/21 161/159/55/21 162/160/55/21
f 171/165/57/22 172/166/57/22 169/167/57/22 170/168/57/22
f 179/173/59/23 180/174/59/23 177/175/59/23 178/176/59/23
f 187/181/61/24 188/182/61/24 185/183/61/24 186/184/61/24
f 195/189/63/25 196/190/63/25 193/191/63/25 194/192/63/25
f 203/197/65/26 204/198/65/26 201/199/65/26 202/200/65/26
f 211/205/67/27 212/206/67/27 209/207/67/27 210/208/67/27
f 219/213/69/28 220/214/69/28 217/215/69/28 218/216/69/28
f 227/221/71/29 228/222/71/29 225/223/71/29 226/224/71/29
f 235/229/73/30 236/230/73/30 233/231/73/30 234/232/73/30
f 243/237/75/31 244/238/75/31 241/239/75/31 242/240/75/31
f 247/245/77/32 248/246/77/32 245/247/77/32 246/248/77/32
f 255/253/80/33 256/254/80/33 253/255/80/33 254/256/80/33
f 263/261/83/34 264/262/83/34 261/263/83/34 262/264/83/34
f 271/269/86/35 272/270/86/35 269/271/86/35 270/272/86/35
f 279/277/89/36 280/278/89/36 277/279/89/36 278/280/89/36
f 299/297/95/40 300/298/95/40 297/299/95/40 298/300/95/40
f 339/337/106/49 340/338/106/49 337/339/106/49 338/340/106/49
f 347/345/109/50 348/346/109/50 345/347/109/50 346/348/109/50
f 379/377/118/57 380/378/118/57 377/379/118/57 378/380/118/57
f 387/385/121/58 388/386/121/58 385/387/121/58 386/388/121/58
f 403/397/125/60 404/398/125/60 401/399/125/60 402/400/125/60
f 411/405/127/61 412/406/127/61 409/407/127/61 410/408/127/61
f 435/433/134/67 436/434/134/67 433/435/134/67 434/436/134/67
f 443/441/137/68 444/442/137/68 441/443/137/68 442/444/137/68
f 463/457/142/71 464/458/142/71 461/459/142/71 462/460/142/71
f 471/465/144/72 472/466/144/72 469/467/144/72 470/468/144/72
f 479/473/146/73 480/474/146/73 477/475/146/73 478/476/146/73
f 487/481/148/74 488/482/148/74 485/483/148/74 486/484/148/74
f 495/489/150/75 496/490/150/75 493/491/150/75 494/492/150/75
f 503/497/152/76 504/498/152/76 501/499/152/76 502/500/152/76
f 511/505/154/77 512/506/154/77 509/507/154/77 510/508/154/77
f 519/513/156/78 520/514/156/78 517/515/156/78 518/516/156/78
f 527/521/158/79 528/522/158/79 525/523/158/79 526/524/158/79
f 531/529/160/80 532/530/160/80 529/531/160/80 530/532/160/80
f 547/541/164/82 548/542/164/82 545/543/164/82 546/544/164/82
f 575/573/172/89 576/574/172/89 573/575/172/89 574/576/172/89
f 583/581/175/90 584/582/175/90 581/583/175/90 582/584/175/90
f 591/589/178/91 592/590/178/91 589/591/178/91 590/592/178/91
f 599/597/181/92 600/598/181/92 597/599/181/92 598/600/181/92
f 607/605/184/93 608/606/184/93 605/607/184/93 606/608/184/93
f 615/613/187/94 616/614/187/94 613/615/187/94 614/616/187/94
f 623/621/190/95 624/622/190/95 621/623/190/95 622/624/190/95
f 631/629/193/96 632/630/193/96 629/631/193/96 630/632/193/96
f 639/637/196/97 640/638/196/97 637/639/196/97 638/640/196/97
f 647/645/199/98 648/646/199/98 645/647/199/98 646/648/199/98
f 655/653/202/99 656/654/202/99 653/655/202/99 654/656/202/99
f 663/661/205/100 664/662/205/100 661/663/205/100 662/664/205/100
f 671/669/208/101 672/670/208/101 669/671/208/101 670/672/208/101
usemtl tree01
s off
f 7/5/2/1 8/6/3/1 5/7/2/1 6/8/3/1
f 15/13/5/2 16/14/6/2 13/15/5/2 14/16/6/2
f 23/21/8/3 24/22/9/3 21/23/8/3 22/24/9/3
f 31/29/11/4 32/30/12/4 29/31/11/4 30/32/12/4
f 43/41/15/6 44/42/16/6 41/43/15/6 42/44/16/6
f 51/49/18/7 52/50/19/7 49/51/18/7 50/52/19/7
f 59/57/21/8 60/58/22/8 57/59/21/8 58/60/22/8
f 67/65/24/9 68/66/25/9 65/67/24/9 66/68/25/9
f 75/73/27/10 76/74/28/10 73/75/27/10 74/76/28/10
f 83/81/30/11 84/82/31/11 81/83/30/11 82/84/31/11
f 91/89/33/12 92/90/34/12 89/91/33/12 90/92/34/12
f 99/97/36/13 100/98/37/13 97/99/36/13 98/100/37/13
f 107/105/39/14 108/106/40/14 105/107/39/14 106/108/40/14
f 115/113/42/15 116/114/43/15 113/115/42/15 114/116/43/15
f 123/121/45/16 124/122/46/16 121/123/45/16 122/124/46/16
f 251/249/78/32 252/250/79/32 249/251/78/32 250/252/79/32
f 259/257/81/33 260/258/82/33 257/259/81/33 258/260/82/33
f 267/265/84/34 268/266/85/34 265/267/84/34 266/268/85/34
f 275/273/87/35 276/274/88/35 273/275/87/35 274/276/88/35
f 283/281/90/36 284/282/91/36 281/283/90/36 282/284/91/36
f 303/301/96/40 304/302/97/40 301/303/96/40 302/304/97/40
f 343/341/107/49 344/342/108/49 341/343/107/49 342/344/108/49
f 351/349/110/50 352/350/111/50 349/351/110/50 350/352/111/50
f 383/381/119/57 384/382/120/57 381/383/119/57 382/384/120/57
f 391/389/122/58 392/390/123/58 389/391/122/58 390/392/123/58
f 439/437/135/67 440/438/136/67 437/439/135/67 438/440/136/67
f 447/445/138/68 448/446/139/68 445/447/138/68 446/448/139/68
f 535/533/161/80 536/534/162/80 533/535/161/80 534/536/162/80
f 579/577/173/89 580/578/174/89 577/579/173/89 578/580/174/89
f 587/585/176/90 588/586/177/90 585/587/176/90 586/588/177/90
f 595/593/179/91 596/594/180/91 593/595/179/91 594/596/180/91
f 603/601/182/92 604/602/183/92 601/603/182/92 602/604/183/92
f 611/609/185/93 612/610/186/93 609/611/185/93 610/612/186/93
f 619/617/188/94 620/618/189/94 617/619/188/94 618/620/189/94
f 627/625/191/95 628/626/192/95 625/627/191/95 626/628/192/95
f 635/633/194/96 636/634/195/96 633/635/194/96 634/636/195/96
f 643/641/197/97 644/642/198/97 641/643/197/97 642/644/198/97
f 651/649/200/98 652/650/201/98 649/651/200/98 650/652/201/98
f 659/657/203/99 660/658/204/99 657/659/203/99 658/660/204/99
f 667/665/206/100 668/666/207/100 665/667/206/100 666/668/207/100
f 675/673/209/101 676/674/210/101 673/675/209/101 674/676/210/101
usemtl tree01_re
s off
f 127/129/48/17 128/130/48/17 125/131/48/17 126/132/48/17
f 135/137/50/18 136/138/50/18 133/139/50/18 134/140/50/18
f 143/145/52/19 144/146/52/19 141/147/52/19 142/148/52/19
f 151/153/54/20 152/154/54/20 149/155/54/20 150/156/54/20
f 159/161/56/21 160/162/56/21 157/163/56/21 158/164/56/21
f 167/169/58/22 168/170/58/22 165/171/58/22 166/172/58/22
f 175/177/60/23 176/178/60/23 173/179/60/23 174/180/60/23
f 183/185/62/24 184/186/62/24 181/187/62/24 182/188/62/24
f 191/193/64/25 192/194/64/25 189/195/64/25 190/196/64/25
f 199/201/66/26 200/202/66/26 197/203/66/26 198/204/66/26
f 207/209/68/27 208/210/68/27 205/211/68/27 206/212/68/27
f 215/217/70/28 216/218/70/28 213/219/70/28 214/220/70/28
f 223/225/72/29 224/226/72/29 221/227/72/29 222/228/72/29
f 231/233/74/30 232/234/74/30 229/235/74/30 230/236/74/30
f 239/241/76/31 240/242/76/31 237/243/76/31 238/244/76/31
f 399/401/126/60 400/402/126/60 397/403/126/60 398/404/126/60
f 407/409/128/61 408/410/128/61 405/411/128/61 406/412/128/61
f 459/461/143/71 460/462/143/71 457/463/143/71 458/464/143/71
f 467/469/145/72 468/470/145/72 465/471/145/72 466/472/145/72
f 475/477/147/73 476/478/147/73 473/479/147/73 474/480/147/73
f 483/485/149/74 484/486/149/74 481/487/149/74 482/488/149/74
f 491/493/151/75 492/494/151/75 489/495/151/75 490/496/151/75
f 499/501/153/76 500/502/153/76 497/503/153/76 498/504/153/76
f 507/509/155/77 508/510/155/77 505/511/155/77 506/512/155/77
f 515/517/157/78 516/518/157/78 513/519/157/78 514/520/157/78
f 523/525/159/79 524/526/159/79 521/527/159/79 522/528/159/79
f 543/545/165/82 544/546/165/82 541/547/165/82 542/548/165/82
usemtl egrass
s off
f 693/693/215/106 694/694/215/106 695/695/215/106 696/696/215/106
usemtl egrass_u
s off
f 689/689/214/105 690/690/214/105 691/691/214/105 692/692/214/105
f 697/697/216/107 698/698/216/107 699/699/216/107 700/700/216/107
usemtl egrass_v
s off
f 681/681/212/103 682/682/212/103 683/683/212/103 684/684/212/103
f 729/729/224/115 730/730/224/115 731/731/224/115 732/732/224/115
usemtl egrass_ro
s off
f 677/677/211/102 678/678/211/102 679/679/211/102 680/680/211/102
f 685/685/213/104 686/686/213/104 687/687/213/104 688/688/213/104
f 725/725/223/114 726/726/223/114 727/727/223/114 728/728/223/114
f 733/733/225/116 734/734/225/116 735/735/225/116 736/736/225/116
f 745/745/228/119 746/746/228/119 747/747/228/119 748/748/228/119
usemtl grass01_a
s off
f 703/701/217/108 704/702/217/108 701/703/217/108 702/704/217/108
f 787/785/238/129 788/786/238/129 785/787/238/129 786/788/238/129
f 795/793/240/131 796/794/240/131 793/795/240/131 794/796/240/131
usemtl flower01
s off
f 707/705/218/109 708/706/218/109 705/707/218/109 706/708/218/109
f 711/709/219/110 712/710/219/110 709/711/219/110 710/712/219/110
f 719/717/221/112 720/718/221/112 717/719/221/112 718/720/221/112
f 723/721/222/113 724/722/222/113 721/723/222/113 722/724/222/113
f 743/741/227/118 744/742/227/118 741/743/227/118 742/744/227/118
f 751/749/229/120 752/750/229/120 749/751/229/120 750/752/229/120
f 759/757/231/122 760/758/231/122 757/759/231/122 758/760/231/122
f 763/761/232/123 764/762/232/123 761/763/232/123 762/764/232/123
f 771/769/234/125 772/770/234/125 769/771/234/125 770/772/234/125
f 775/773/235/126 776/774/235/126 773/775/235/126 774/776/235/126
f 779/777/236/127 780/778/236/127 777/779/236/127 778/780/236/127
f 783/781/237/128 784/782/237/128 781/783/237/128 782/784/237/128
usemtl road01_sub
s off
f 715/713/220/111 716/714/220/111 713/715/220/111 714/716/220/111
f 739/737/226/117 740/738/226/117 737/739/226/117 738/740/226/117
f 755/753/230/121 756/754/230/121 753/755/230/121 754/756/230/121
f 767/765/233/124 768/766/233/124 765/767/233/124 766/768/233/124
f 791/789/239/130 792/790/239/130 789/791/239/130 790/792/239/130
