# Blender v2.83.20 OBJ File: ''
# www.blender.org
mtllib untitled.mtl
o map13_07c_map13_07c.001
v -48.000000 47.999962 240.000015
v 16.000000 47.999962 240.000015
v 16.000000 47.999969 176.000015
v -48.000000 47.999969 176.000015
v -48.000000 47.999969 176.000015
v 16.000000 47.999969 176.000015
v 16.000000 47.999981 128.000015
v -48.000000 47.999981 128.000015
v -112.000000 47.999981 128.000015
v 0.000000 47.999981 128.000015
v 0.000000 47.999985 96.000008
v -112.000000 47.999985 96.000008
v 0.000000 47.999981 128.000015
v 128.000000 47.999981 128.000015
v 128.000000 47.999985 96.000008
v 0.000000 47.999985 96.000008
v 128.000000 47.999981 128.000015
v 256.000000 47.999981 128.000015
v 256.000000 47.999985 96.000008
v 128.000000 47.999985 96.000008
v -8.000000 48.999969 192.000015
v 8.000000 48.999969 192.000015
v 8.000000 48.999969 176.000015
v -8.000000 48.999969 176.000015
v -40.000000 48.999977 144.000015
v -24.000000 48.999977 144.000015
v -24.000000 48.999981 128.000015
v -40.000000 48.999981 128.000015
v -88.000000 48.999985 104.000008
v -72.000000 48.999985 104.000008
v -72.000000 48.999985 88.000008
v -88.000000 48.999985 88.000008
v 168.000000 48.999981 128.000015
v 184.000000 48.999981 128.000015
v 184.000000 48.999981 112.000008
v 168.000000 48.999981 112.000008
v 64.000000 48.999981 112.000008
v 80.000000 48.999981 112.000008
v 80.000000 48.999985 96.000008
v 64.000000 48.999985 96.000008
v 160.000000 48.999973 160.000015
v 176.000000 48.999973 160.000015
v 176.000000 48.999977 144.000015
v 160.000000 48.999977 144.000015
v 224.000000 48.999989 80.000008
v 240.000000 48.999989 80.000008
v 240.000000 48.999989 64.000008
v 224.000000 48.999989 64.000008
v 160.000000 48.999992 48.000008
v 176.000000 48.999992 48.000008
v 176.000000 48.999996 32.000008
v 160.000000 48.999996 32.000008
v 48.000000 48.999989 64.000008
v 64.000000 48.999989 64.000008
v 64.000000 48.999992 48.000008
v 48.000000 48.999992 48.000008
v 48.000000 48.999973 160.000015
v 64.000000 48.999973 160.000015
v 64.000000 48.999977 144.000015
v 48.000000 48.999977 144.000015
v 32.000000 48.999969 176.000015
v 48.000000 48.999969 176.000015
v 48.000000 48.999973 160.000015
v 32.000000 48.999973 160.000015
v -48.000000 48.999992 48.000008
v -32.000000 48.999992 48.000008
v -32.000000 48.999996 32.000008
v -48.000000 48.999996 32.000008
v -88.000000 48.999973 168.000015
v -72.000000 48.999973 168.000015
v -72.000000 48.999977 152.000015
v -88.000000 48.999977 152.000015
v -144.000000 48.999981 128.000015
v -128.000000 48.999981 128.000015
v -128.000000 48.999981 112.000008
v -144.000000 48.999981 112.000008
v -160.000000 48.999992 56.000008
v -144.000000 48.999992 56.000008
v -144.000000 48.999992 40.000008
v -160.000000 48.999992 40.000008
v -224.000000 48.999981 112.000008
v -208.000000 48.999981 112.000008
v -208.000000 48.999985 96.000008
v -224.000000 48.999985 96.000008
v 112.000000 48.999989 64.000008
v 128.000000 48.999989 64.000008
v 128.000000 48.999992 48.000008
v 112.000000 48.999992 48.000008
v 96.000000 48.999989 80.000008
v 112.000000 48.999989 80.000008
v 112.000000 48.999989 64.000008
v 96.000000 48.999989 64.000008
v 80.000000 48.999989 64.000008
v 96.000000 48.999989 64.000008
v 96.000000 48.999992 48.000008
v 80.000000 48.999992 48.000008
v 64.000000 48.999989 80.000008
v 80.000000 48.999989 80.000008
v 80.000000 48.999989 64.000008
v 64.000000 48.999989 64.000008
v 16.000000 48.999989 64.000008
v 32.000000 48.999989 64.000008
v 32.000000 48.999992 48.000008
v 16.000000 48.999992 48.000008
v 0.000000 48.999989 80.000008
v 16.000000 48.999989 80.000008
v 16.000000 48.999989 64.000008
v 0.000000 48.999989 64.000008
v -16.000000 48.999989 64.000008
v 0.000000 48.999989 64.000008
v 0.000000 48.999992 48.000008
v -16.000000 48.999992 48.000008
v -32.000000 48.999989 80.000008
v -16.000000 48.999989 80.000008
v -16.000000 48.999989 64.000008
v -32.000000 48.999989 64.000008
v -80.000000 48.999989 64.000008
v -64.000000 48.999989 64.000008
v -64.000000 48.999992 48.000008
v -80.000000 48.999992 48.000008
v -96.000000 48.999989 80.000008
v -80.000000 48.999989 80.000008
v -80.000000 48.999989 64.000008
v -96.000000 48.999989 64.000008
v -112.000000 48.999989 64.000008
v -96.000000 48.999989 64.000008
v -96.000000 48.999992 48.000008
v -112.000000 48.999992 48.000008
v -128.000000 48.999989 80.000008
v -112.000000 48.999989 80.000008
v -112.000000 48.999989 64.000008
v -128.000000 48.999989 64.000008
v 224.000000 47.999989 80.000008
v 256.000000 47.999989 80.000008
v 256.000000 47.999989 64.000008
v 224.000000 47.999989 64.000008
v 224.000000 47.999973 160.000015
v 256.000000 47.999973 160.000015
v 256.000000 47.999977 144.000015
v 224.000000 47.999977 144.000015
v 144.000000 47.999973 160.000015
v 224.000000 47.999973 160.000015
v 224.000000 47.999977 144.000015
v 144.000000 47.999977 144.000015
v 64.000000 47.999973 160.000015
v 144.000000 47.999973 160.000015
v 144.000000 47.999977 144.000015
v 64.000000 47.999977 144.000015
v 32.000000 47.999969 192.000015
v 64.000000 47.999969 192.000015
v 64.000000 47.999977 144.000015
v 32.000000 47.999977 144.000015
v 160.000000 47.999989 80.000008
v 224.000000 47.999989 80.000008
v 224.000000 47.999996 32.000008
v 160.000000 47.999996 32.000008
v 64.000000 47.999989 80.000008
v 160.000000 47.999989 80.000008
v 160.000000 47.999996 32.000008
v 64.000000 47.999996 32.000008
v -32.000000 47.999989 80.000008
v 64.000000 47.999989 80.000008
v 64.000000 47.999996 32.000008
v -32.000000 47.999996 32.000008
v -128.000000 47.999989 80.000008
v -32.000000 47.999989 80.000008
v -32.000000 47.999996 32.000008
v -128.000000 47.999996 32.000008
v -128.000000 47.999973 160.000015
v -96.000000 47.999973 160.000015
v -96.000000 47.999977 144.000015
v -128.000000 47.999977 144.000015
v -96.000000 47.999969 192.000015
v -64.000000 47.999969 192.000015
v -64.000000 47.999977 144.000015
v -96.000000 47.999977 144.000015
v -160.000000 47.999973 160.000015
v -128.000000 47.999973 160.000015
v -128.000000 47.999985 96.000008
v -160.000000 47.999985 96.000008
v -160.000000 47.999985 96.000008
v -128.000000 47.999985 96.000008
v -128.000000 47.999996 32.000008
v -160.000000 47.999996 32.000008
v -256.000000 47.999981 128.000015
v -160.000000 47.999981 128.000015
v -160.000000 47.999985 96.000008
v -256.000000 47.999985 96.000008
v -272.000000 47.999969 186.000015
v -208.000000 47.999969 186.000015
v -208.000000 97.343727 145.234390
v -272.000000 97.343727 145.234390
v 208.000000 47.999992 58.000008
v 272.000000 47.999992 58.000008
v 272.000000 97.343750 17.234392
v 208.000000 97.343750 17.234392
v -272.000000 47.999985 90.000008
v -208.000000 47.999985 90.000008
v -208.000000 97.343742 49.234390
v -272.000000 97.343742 49.234390
v -208.000000 47.999985 90.000008
v -144.000000 47.999985 90.000008
v -144.000000 97.343742 49.234390
v -208.000000 97.343742 49.234390
v -272.000000 47.999992 58.000008
v -208.000000 47.999992 58.000008
v -208.000000 97.343750 17.234392
v -272.000000 97.343750 17.234392
v -208.000000 47.999992 58.000008
v -144.000000 47.999992 58.000008
v -144.000000 97.343750 17.234392
v -208.000000 97.343750 17.234392
v 16.000000 47.999958 250.000015
v 80.000000 47.999958 250.000015
v 80.000000 97.343719 209.234390
v 16.000000 97.343719 209.234390
v 16.000000 47.999966 218.000015
v 80.000000 47.999966 218.000015
v 80.000000 97.343719 177.234390
v 16.000000 97.343719 177.234390
v 48.000000 47.999969 186.000015
v 112.000000 47.999969 186.000015
v 112.000000 97.343727 145.234390
v 48.000000 97.343727 145.234390
v -112.000000 47.999958 250.000015
v -48.000000 47.999958 250.000015
v -48.000000 97.343719 209.234390
v -112.000000 97.343719 209.234390
v -112.000000 47.999966 218.000015
v -48.000000 47.999966 218.000015
v -48.000000 97.343719 177.234390
v -112.000000 97.343719 177.234390
v -144.000000 47.999969 186.000015
v -80.000000 47.999969 186.000015
v -80.000000 97.343727 145.234390
v -144.000000 97.343727 145.234390
v -272.000000 47.999973 154.000015
v -208.000000 47.999973 154.000015
v -208.000000 97.343735 113.234390
v -272.000000 97.343735 113.234390
v -208.000000 47.999973 154.000015
v -144.000000 47.999973 154.000015
v -144.000000 97.343735 113.234390
v -208.000000 97.343735 113.234390
v 32.000000 47.999977 144.000015
v 16.000000 47.999977 144.000015
v 16.000000 47.999969 176.000015
v 32.000000 47.999969 176.000015
v -64.000000 47.999969 176.000015
v -48.000000 47.999969 176.000015
v -48.000000 47.999977 144.000015
v -64.000000 47.999977 144.000015
v -128.000000 47.999981 128.000015
v -112.000000 47.999981 128.000015
v -112.000000 47.999985 96.000008
v -128.000000 47.999985 96.000008
v 16.000000 47.999958 256.000000
v 16.000000 47.999962 240.000015
v -48.000000 47.999962 240.000015
v -48.000000 47.999958 256.000000
v 32.000000 47.999969 176.000015
v 16.000000 47.999969 176.000015
v 16.000000 47.999962 240.000015
v 32.000000 47.999962 240.000015
v -64.000000 47.999962 240.000015
v -48.000000 47.999962 240.000015
v -48.000000 47.999969 176.000015
v -64.000000 47.999969 176.000015
v 256.000000 47.999977 144.000015
v 256.000000 47.999981 128.000015
v 160.000000 47.999981 128.000015
v 160.000000 47.999977 144.000015
v 160.000000 47.999977 144.000015
v 160.000000 47.999981 128.000015
v 32.000000 47.999981 128.000015
v 32.000000 47.999977 144.000015
v -64.000000 47.999977 144.000015
v -64.000000 47.999981 128.000015
v -112.000000 47.999981 128.000015
v -112.000000 47.999977 144.000015
v -112.000000 47.999989 80.000008
v -112.000000 47.999985 96.000008
v -48.000000 47.999985 96.000008
v -48.000000 47.999989 80.000008
v -48.000000 47.999989 80.000008
v -48.000000 47.999985 96.000008
v 0.000000 47.999985 96.000008
v 0.000000 47.999989 80.000008
v 16.000000 47.999958 256.000000
v 32.000000 47.999958 256.000000
v 32.000000 47.999962 240.000015
v 16.000000 47.999962 240.000015
v -64.000000 47.999962 240.000015
v -64.000000 47.999958 256.000000
v -48.000000 47.999958 256.000000
v -48.000000 47.999962 240.000015
v -64.000000 47.999981 128.000015
v -64.000000 47.999977 144.000015
v -48.000000 47.999977 144.000015
v -48.000000 47.999981 128.000015
v 16.000000 47.999977 144.000015
v 32.000000 47.999977 144.000015
v 32.000000 47.999981 128.000015
v 16.000000 47.999981 128.000015
v -128.000000 47.999981 128.000015
v -128.000000 47.999977 144.000015
v -112.000000 47.999977 144.000015
v -112.000000 47.999981 128.000015
v -112.000000 47.999989 80.000008
v -128.000000 47.999989 80.000008
v -128.000000 47.999985 96.000008
v -112.000000 47.999985 96.000008
v 0.000000 47.999989 80.000008
v 0.000000 47.999985 96.000008
v 128.000000 47.999985 96.000008
v 128.000000 47.999989 80.000008
v 128.000000 47.999989 80.000008
v 128.000000 47.999985 96.000008
v 256.000000 47.999985 96.000008
v 256.000000 47.999989 80.000008
v 224.000000 47.999989 64.000008
v 256.000000 47.999989 64.000008
v 256.000000 47.999996 32.000008
v 224.000000 47.999996 32.000008
v 160.000000 47.999958 256.000000
v 256.000000 47.999958 256.000000
v 256.000000 47.999973 160.000015
v 160.000000 47.999973 160.000015
v 64.000000 47.999958 256.000000
v 160.000000 47.999958 256.000000
v 160.000000 47.999973 160.000015
v 64.000000 47.999973 160.000015
v 32.000000 47.999958 256.000000
v 64.000000 47.999958 256.000000
v 64.000000 47.999969 192.000015
v 32.000000 47.999969 192.000015
v -96.000000 47.999958 256.000000
v -64.000000 47.999958 256.000000
v -64.000000 47.999969 192.000015
v -96.000000 47.999969 192.000015
v -160.000000 47.999969 192.000015
v -96.000000 47.999969 192.000015
v -96.000000 47.999973 160.000015
v -160.000000 47.999973 160.000015
v -160.000000 47.999958 256.000000
v -96.000000 47.999958 256.000000
v -96.000000 47.999969 192.000015
v -160.000000 47.999969 192.000015
v -256.000000 47.999958 256.000000
v -160.000000 47.999958 256.000000
v -160.000000 47.999973 160.000015
v -256.000000 47.999973 160.000015
v -256.000000 47.999973 160.000015
v -160.000000 47.999973 160.000015
v -160.000000 47.999981 128.000015
v -256.000000 47.999981 128.000015
v 224.000000 47.999996 32.000008
v 256.000000 47.999996 32.000008
v 256.000000 48.000000 0.000008
v 224.000000 48.000000 0.000008
v 96.000000 47.999996 32.000008
v 224.000000 47.999996 32.000008
v 224.000000 48.000000 0.000008
v 96.000000 48.000000 0.000008
v -32.000000 47.999996 32.000008
v 96.000000 47.999996 32.000008
v 96.000000 48.000000 0.000008
v -32.000000 48.000000 0.000008
v -160.000000 47.999996 32.000008
v -32.000000 47.999996 32.000008
v -32.000000 48.000000 0.000008
v -160.000000 48.000000 0.000008
v -256.000000 47.999985 96.000008
v -160.000000 47.999985 96.000008
v -160.000000 48.000000 0.000008
v -256.000000 48.000000 0.000008
v -256.000000 48.000000 0.000008
v -128.000000 48.000000 0.000008
v -128.000000 48.000019 -127.999992
v -256.000000 48.000019 -127.999992
v -128.000000 48.000000 0.000008
v 0.000000 48.000000 0.000008
v 0.000000 48.000019 -127.999992
v -128.000000 48.000019 -127.999992
v 0.000000 48.000000 0.000008
v 128.000000 48.000000 0.000008
v 128.000000 48.000019 -127.999992
v 0.000000 48.000019 -127.999992
v 128.000000 48.000000 0.000008
v 256.000000 48.000000 0.000008
v 256.000000 48.000019 -127.999992
v 128.000000 48.000019 -127.999992
v 128.000000 48.000019 -127.999992
v 256.000000 48.000019 -127.999992
v 256.000000 48.000042 -255.999985
v 128.000000 48.000042 -255.999985
v 0.000000 48.000019 -127.999992
v 128.000000 48.000019 -127.999992
v 128.000000 48.000042 -255.999985
v 0.000000 48.000042 -255.999985
v -128.000000 48.000019 -127.999992
v 0.000000 48.000019 -127.999992
v 0.000000 48.000042 -255.999985
v -128.000000 48.000042 -255.999985
v -256.000000 48.000019 -127.999992
v -128.000000 48.000019 -127.999992
v -128.000000 48.000042 -255.999985
v -256.000000 48.000042 -255.999985
v -224.000000 47.999969 185.000015
v -128.000000 47.999969 185.000015
v -128.000000 97.343727 144.234390
v -224.000000 97.343727 144.234390
v -224.000000 47.999985 89.000008
v -192.000000 47.999985 89.000008
v -192.000000 97.343742 48.234390
v -224.000000 97.343742 48.234390
v -224.000000 47.999992 57.000008
v -192.000000 47.999992 57.000008
v -192.000000 97.343750 16.234390
v -224.000000 97.343750 16.234390
v 128.000000 47.999996 25.000008
v 256.000000 47.999996 25.000008
v 256.000000 97.343750 -15.765609
v 128.000000 97.343750 -15.765609
v 0.000000 47.999996 25.000008
v 128.000000 47.999996 25.000008
v 128.000000 97.343750 -15.765609
v 0.000000 97.343750 -15.765609
v -128.000000 47.999996 25.000008
v 0.000000 47.999996 25.000008
v 0.000000 97.343750 -15.765609
v -128.000000 97.343750 -15.765609
v -256.000000 47.999996 25.000008
v -128.000000 47.999996 25.000008
v -128.000000 97.343750 -15.765609
v -256.000000 97.343750 -15.765609
v 128.000000 48.000000 -6.999992
v 256.000000 48.000000 -6.999992
v 256.000000 97.343758 -47.765610
v 128.000000 97.343758 -47.765610
v 0.000000 48.000000 -6.999992
v 128.000000 48.000000 -6.999992
v 128.000000 97.343758 -47.765610
v 0.000000 97.343758 -47.765610
v -128.000000 48.000000 -6.999992
v 0.000000 48.000000 -6.999992
v 0.000000 97.343758 -47.765610
v -128.000000 97.343758 -47.765610
v -256.000000 48.000000 -6.999992
v -128.000000 48.000000 -6.999992
v -128.000000 97.343758 -47.765610
v -256.000000 97.343758 -47.765610
v 128.000000 48.000008 -38.999992
v 256.000000 48.000008 -38.999992
v 256.000000 97.343765 -79.765610
v 128.000000 97.343765 -79.765610
v 0.000000 48.000008 -38.999992
v 128.000000 48.000008 -38.999992
v 128.000000 97.343765 -79.765610
v 0.000000 97.343765 -79.765610
v -128.000000 48.000008 -38.999992
v 0.000000 48.000008 -38.999992
v 0.000000 97.343765 -79.765610
v -128.000000 97.343765 -79.765610
v -256.000000 48.000008 -38.999992
v -128.000000 48.000008 -38.999992
v -128.000000 97.343765 -79.765610
v -256.000000 97.343765 -79.765610
v 128.000000 48.000011 -70.999992
v 256.000000 48.000011 -70.999992
v 256.000000 97.343765 -111.765610
v 128.000000 97.343765 -111.765610
v 0.000000 48.000011 -70.999992
v 128.000000 48.000011 -70.999992
v 128.000000 97.343765 -111.765610
v 0.000000 97.343765 -111.765610
v -128.000000 48.000011 -70.999992
v 0.000000 48.000011 -70.999992
v 0.000000 97.343765 -111.765610
v -128.000000 97.343765 -111.765610
v -256.000000 48.000011 -70.999992
v -128.000000 48.000011 -70.999992
v -128.000000 97.343765 -111.765610
v -256.000000 97.343765 -111.765610
v 128.000000 48.000015 -102.999992
v 256.000000 48.000015 -102.999992
v 256.000000 97.343773 -143.765610
v 128.000000 97.343773 -143.765610
v 0.000000 48.000015 -102.999992
v 128.000000 48.000015 -102.999992
v 128.000000 97.343773 -143.765610
v 0.000000 97.343773 -143.765610
v -128.000000 48.000015 -102.999992
v 0.000000 48.000015 -102.999992
v 0.000000 97.343773 -143.765610
v -128.000000 97.343773 -143.765610
v -256.000000 48.000015 -102.999992
v -128.000000 48.000015 -102.999992
v -128.000000 97.343773 -143.765610
v -256.000000 97.343773 -143.765610
v 128.000000 48.000023 -134.999985
v 256.000000 48.000023 -134.999985
v 256.000000 97.343781 -175.765625
v 128.000000 97.343781 -175.765625
v 0.000000 48.000023 -134.999985
v 128.000000 48.000023 -134.999985
v 128.000000 97.343781 -175.765625
v 0.000000 97.343781 -175.765625
v -128.000000 48.000023 -134.999985
v 0.000000 48.000023 -134.999985
v 0.000000 97.343781 -175.765625
v -128.000000 97.343781 -175.765625
v -256.000000 48.000023 -134.999985
v -128.000000 48.000023 -134.999985
v -128.000000 97.343781 -175.765625
v -256.000000 97.343781 -175.765625
v 128.000000 48.000027 -166.999985
v 256.000000 48.000027 -166.999985
v 256.000000 97.343781 -207.765625
v 128.000000 97.343781 -207.765625
v 0.000000 48.000027 -166.999985
v 128.000000 48.000027 -166.999985
v 128.000000 97.343781 -207.765625
v 0.000000 97.343781 -207.765625
v -128.000000 48.000027 -166.999985
v 0.000000 48.000027 -166.999985
v 0.000000 97.343781 -207.765625
v -128.000000 97.343781 -207.765625
v -256.000000 48.000027 -166.999985
v -128.000000 48.000027 -166.999985
v -128.000000 97.343781 -207.765625
v -256.000000 97.343781 -207.765625
v 128.000000 48.000031 -198.999985
v 256.000000 48.000031 -198.999985
v 256.000000 97.343788 -239.765625
v 128.000000 97.343788 -239.765625
v 0.000000 48.000031 -198.999985
v 128.000000 48.000031 -198.999985
v 128.000000 97.343788 -239.765625
v 0.000000 97.343788 -239.765625
v -128.000000 48.000031 -198.999985
v 0.000000 48.000031 -198.999985
v 0.000000 97.343788 -239.765625
v -128.000000 97.343788 -239.765625
v -256.000000 48.000031 -198.999985
v -128.000000 48.000031 -198.999985
v -128.000000 97.343788 -239.765625
v -256.000000 97.343788 -239.765625
v 128.000000 48.000038 -230.999985
v 256.000000 48.000038 -230.999985
v 256.000000 97.343796 -271.765594
v 128.000000 97.343796 -271.765594
v 0.000000 48.000038 -230.999985
v 128.000000 48.000038 -230.999985
v 128.000000 97.343796 -271.765594
v 0.000000 97.343796 -271.765594
v -128.000000 48.000038 -230.999985
v 0.000000 48.000038 -230.999985
v 0.000000 97.343796 -271.765594
v -128.000000 97.343796 -271.765594
v -256.000000 48.000038 -230.999985
v -128.000000 48.000038 -230.999985
v -128.000000 97.343796 -271.765594
v -256.000000 97.343796 -271.765594
v 64.000000 47.999958 249.000015
v 128.000000 47.999958 249.000015
v 128.000000 97.343719 208.234390
v 64.000000 97.343719 208.234390
v 64.000000 47.999966 217.000015
v 128.000000 47.999966 217.000015
v 128.000000 97.343719 176.234390
v 64.000000 97.343719 176.234390
v 96.000000 47.999969 185.000015
v 128.000000 47.999969 185.000015
v 128.000000 97.343727 144.234390
v 96.000000 97.343727 144.234390
v 128.000000 47.999958 249.000015
v 256.000000 47.999958 249.000015
v 256.000000 97.343719 208.234390
v 128.000000 97.343719 208.234390
v 128.000000 47.999966 217.000015
v 256.000000 47.999966 217.000015
v 256.000000 97.343719 176.234390
v 128.000000 97.343719 176.234390
v 128.000000 47.999969 185.000015
v 256.000000 47.999969 185.000015
v 256.000000 97.343727 144.234390
v 128.000000 97.343727 144.234390
v -128.000000 47.999958 249.000015
v -96.000000 47.999958 249.000015
v -96.000000 97.343719 208.234390
v -128.000000 97.343719 208.234390
v -128.000000 47.999966 217.000015
v -96.000000 47.999966 217.000015
v -96.000000 97.343719 176.234390
v -128.000000 97.343719 176.234390
v -256.000000 47.999958 249.000015
v -128.000000 47.999958 249.000015
v -128.000000 97.343719 208.234390
v -256.000000 97.343719 208.234390
v -256.000000 47.999966 217.000015
v -128.000000 47.999966 217.000015
v -128.000000 97.343719 176.234390
v -256.000000 97.343719 176.234390
v -224.000000 47.999973 153.000015
v -192.000000 47.999973 153.000015
v -192.000000 97.343735 112.234390
v -224.000000 97.343735 112.234390
vt -1.500000 -7.500000
vt 0.500000 -7.500000
vt 0.500000 -5.500000
vt -1.500000 -5.500000
vt -1.500000 -5.500000
vt 0.500000 -5.500000
vt 0.500000 -4.000000
vt -1.500000 -4.000000
vt -3.500000 -4.000000
vt 0.000000 -4.000000
vt 0.000000 -3.000000
vt -3.500000 -3.000000
vt 0.000000 -4.000000
vt 4.000000 -4.000000
vt 4.000000 -3.000000
vt 0.000000 -3.000000
vt 4.000000 -4.000000
vt 8.000000 -4.000000
vt 8.000000 -3.000000
vt 4.000000 -3.000000
vt 0.000000 0.000000
vt 1.000000 0.000000
vt 1.000000 1.000000
vt 0.000000 1.000000
vt 0.000000 0.000000
vt 1.000000 0.000000
vt 1.000000 1.000000
vt 0.000000 1.000000
vt 0.000000 0.000000
vt 1.000000 0.000000
vt 1.000000 1.000000
vt 0.000000 1.000000
vt 0.000000 0.000000
vt 1.000000 0.000000
vt 1.000000 1.000000
vt 0.000000 1.000000
vt 0.000000 0.000000
vt 1.000000 0.000000
vt 1.000000 1.000000
vt 0.000000 1.000000
vt 0.000000 0.000000
vt 1.000000 0.000000
vt 1.000000 1.000000
vt 0.000000 1.000000
vt 0.000000 0.000000
vt 1.000000 0.000000
vt 1.000000 1.000000
vt 0.000000 1.000000
vt 0.000000 0.000000
vt 1.000000 0.000000
vt 1.000000 1.000000
vt 0.000000 1.000000
vt 0.000000 0.000000
vt 1.000000 0.000000
vt 1.000000 1.000000
vt 0.000000 1.000000
vt 0.000000 0.000000
vt 1.000000 0.000000
vt 1.000000 1.000000
vt 0.000000 1.000000
vt 0.000000 0.000000
vt 1.000000 0.000000
vt 1.000000 1.000000
vt 0.000000 1.000000
vt 0.000000 0.000000
vt 1.000000 0.000000
vt 1.000000 1.000000
vt 0.000000 1.000000
vt 0.000000 0.000000
vt 1.000000 0.000000
vt 1.000000 1.000000
vt 0.000000 1.000000
vt 0.000000 0.000000
vt 1.000000 0.000000
vt 1.000000 1.000000
vt 0.000000 1.000000
vt 0.000000 0.000000
vt 1.000000 0.000000
vt 1.000000 1.000000
vt 0.000000 1.000000
vt 0.000000 0.000000
vt 1.000000 0.000000
vt 1.000000 1.000000
vt 0.000000 1.000000
vt -91.000000 -3.000000
vt -90.000000 -3.000000
vt -90.000000 -2.000000
vt -91.000000 -2.000000
vt -91.000000 -3.000000
vt -90.000000 -3.000000
vt -90.000000 -2.000000
vt -91.000000 -2.000000
vt -91.000000 -3.000000
vt -90.000000 -3.000000
vt -90.000000 -2.000000
vt -91.000000 -2.000000
vt -91.000000 -3.000000
vt -90.000000 -3.000000
vt -90.000000 -2.000000
vt -91.000000 -2.000000
vt -91.000000 -3.000000
vt -90.000000 -3.000000
vt -90.000000 -2.000000
vt -91.000000 -2.000000
vt -91.000000 -3.000000
vt -90.000000 -3.000000
vt -90.000000 -2.000000
vt -91.000000 -2.000000
vt -91.000000 -3.000000
vt -90.000000 -3.000000
vt -90.000000 -2.000000
vt -91.000000 -2.000000
vt -91.000000 -3.000000
vt -90.000000 -3.000000
vt -90.000000 -2.000000
vt -91.000000 -2.000000
vt -91.000000 -3.000000
vt -90.000000 -3.000000
vt -90.000000 -2.000000
vt -91.000000 -2.000000
vt -91.000000 -3.000000
vt -90.000000 -3.000000
vt -90.000000 -2.000000
vt -91.000000 -2.000000
vt -91.000000 -3.000000
vt -90.000000 -3.000000
vt -90.000000 -2.000000
vt -91.000000 -2.000000
vt -91.000000 -3.000000
vt -90.000000 -3.000000
vt -90.000000 -2.000000
vt -91.000000 -2.000000
vt 7.000000 -2.500000
vt 8.000000 -2.500000
vt 8.000000 -2.000000
vt 7.000000 -2.000000
vt 7.000000 -5.000000
vt 8.000000 -5.000000
vt 8.000000 -4.500000
vt 7.000000 -4.500000
vt 4.500000 -5.000000
vt 7.000000 -5.000000
vt 7.000000 -4.500000
vt 4.500000 -4.500000
vt 2.000000 -5.000000
vt 4.500000 -5.000000
vt 4.500000 -4.500000
vt 2.000000 -4.500000
vt 1.000000 -6.000000
vt 2.000000 -6.000000
vt 2.000000 -4.500000
vt 1.000000 -4.500000
vt 5.000000 -2.500000
vt 7.000000 -2.500000
vt 7.000000 -1.000000
vt 5.000000 -1.000000
vt 2.000000 -2.500000
vt 5.000000 -2.500000
vt 5.000000 -1.000000
vt 2.000000 -1.000000
vt -1.000000 -2.500000
vt 2.000000 -2.500000
vt 2.000000 -1.000000
vt -1.000000 -1.000000
vt -4.000000 -2.500000
vt -1.000000 -2.500000
vt -1.000000 -1.000000
vt -4.000000 -1.000000
vt -4.000000 -5.000000
vt -3.000000 -5.000000
vt -3.000000 -4.500000
vt -4.000000 -4.500000
vt -3.000000 -6.000000
vt -2.000000 -6.000000
vt -2.000000 -4.500000
vt -3.000000 -4.500000
vt -5.000000 -5.000000
vt -4.000000 -5.000000
vt -4.000000 -3.000000
vt -5.000000 -3.000000
vt -5.000000 -3.000000
vt -4.000000 -3.000000
vt -4.000000 -1.000000
vt -5.000000 -1.000000
vt -8.000000 -4.000000
vt -5.000000 -4.000000
vt -5.000000 -3.000000
vt -8.000000 -3.000000
vt 0.000000 0.000000
vt 1.000000 0.000000
vt 1.000000 1.000000
vt 0.000000 1.000000
vt 0.000000 0.000000
vt 1.000000 0.000000
vt 1.000000 1.000000
vt 0.000000 1.000000
vt 0.000000 0.000000
vt 1.000000 0.000000
vt 1.000000 1.000000
vt 0.000000 1.000000
vt 0.000000 0.000000
vt 1.000000 0.000000
vt 1.000000 1.000000
vt 0.000000 1.000000
vt 0.000000 0.000000
vt 1.000000 0.000000
vt 1.000000 1.000000
vt 0.000000 1.000000
vt 0.000000 0.000000
vt 1.000000 0.000000
vt 1.000000 1.000000
vt 0.000000 1.000000
vt 0.000000 0.000000
vt 1.000000 0.000000
vt 1.000000 1.000000
vt 0.000000 1.000000
vt 0.000000 0.000000
vt 1.000000 0.000000
vt 1.000000 1.000000
vt 0.000000 1.000000
vt 0.000000 0.000000
vt 1.000000 0.000000
vt 1.000000 1.000000
vt 0.000000 1.000000
vt 0.000000 0.000000
vt 1.000000 0.000000
vt 1.000000 1.000000
vt 0.000000 1.000000
vt 0.000000 0.000000
vt 1.000000 0.000000
vt 1.000000 1.000000
vt 0.000000 1.000000
vt 0.000000 0.000000
vt 1.000000 0.000000
vt 1.000000 1.000000
vt 0.000000 1.000000
vt 0.000000 0.000000
vt 1.000000 0.000000
vt 1.000000 1.000000
vt 0.000000 1.000000
vt 0.000000 0.000000
vt 1.000000 0.000000
vt 1.000000 1.000000
vt 0.000000 1.000000
vt 0.011719 1.000000
vt 0.488281 1.000000
vt 0.488281 2.000000
vt 0.011719 2.000000
vt 0.011719 1.000000
vt 0.488281 1.000000
vt 0.488281 2.000000
vt 0.011719 2.000000
vt 0.011719 1.000000
vt 0.488281 1.000000
vt 0.488281 2.000000
vt 0.011719 2.000000
vt 0.011719 0.000000
vt 0.488281 0.000000
vt 0.488281 2.000000
vt 0.011719 2.000000
vt 0.011719 0.000000
vt 0.488281 0.000000
vt 0.488281 2.000000
vt 0.011719 2.000000
vt 0.011719 0.000000
vt 0.488281 0.000000
vt 0.488281 2.000000
vt 0.011719 2.000000
vt 0.011719 -1.000000
vt 0.488281 -1.000000
vt 0.488281 2.000000
vt 0.011719 2.000000
vt 0.011719 -2.000000
vt 0.488281 -2.000000
vt 0.488281 2.000000
vt 0.011719 2.000000
vt 0.011719 0.500000
vt 0.488281 0.500000
vt 0.488281 2.000000
vt 0.011719 2.000000
vt 0.011719 0.000000
vt 0.488281 0.000000
vt 0.488281 2.000000
vt 0.011719 2.000000
vt 0.011719 0.500000
vt 0.488281 0.500000
vt 0.488281 2.000000
vt 0.011719 2.000000
vt 0.505859 0.007812
vt 0.986328 0.007812
vt 0.986328 0.494141
vt 0.505859 0.494141
vt 0.505859 0.007812
vt 0.986328 0.007812
vt 0.986328 0.494141
vt 0.505859 0.494141
vt 0.507812 0.507812
vt 0.986328 0.507812
vt 0.986328 0.992188
vt 0.507812 0.992188
vt 0.507812 0.507812
vt 0.986328 0.507812
vt 0.986328 0.992188
vt 0.507812 0.992188
vt 0.505859 0.007812
vt 0.986328 0.007812
vt 0.986328 0.494141
vt 0.505859 0.494141
vt 0.505859 0.007812
vt 0.986328 0.007812
vt 0.986328 0.494141
vt 0.505859 0.494141
vt 0.011719 -2.000000
vt 0.488281 -2.000000
vt 0.488281 2.000000
vt 0.011719 2.000000
vt 0.011719 -2.000000
vt 0.488281 -2.000000
vt 0.488281 2.000000
vt 0.011719 2.000000
vt 0.000000 0.000000
vt 1.000000 0.000000
vt 1.000000 1.000000
vt 0.000000 1.000000
vt -2.000000 -1.000000
vt 1.000000 -1.000000
vt 1.000000 2.000000
vt -2.000000 2.000000
vt -2.000000 -1.000000
vt 1.000000 -1.000000
vt 1.000000 2.000000
vt -2.000000 2.000000
vt 0.000000 -1.000000
vt 1.000000 -1.000000
vt 1.000000 1.000000
vt 0.000000 1.000000
vt 0.000000 -1.000000
vt 1.000000 -1.000000
vt 1.000000 1.000000
vt 0.000000 1.000000
vt -1.000000 0.000000
vt 1.000000 0.000000
vt 1.000000 1.000000
vt -1.000000 1.000000
vt -1.000000 -1.000000
vt 1.000000 -1.000000
vt 1.000000 1.000000
vt -1.000000 1.000000
vt -2.000000 -1.000000
vt 1.000000 -1.000000
vt 1.000000 2.000000
vt -2.000000 2.000000
vt -2.000000 0.000000
vt 1.000000 0.000000
vt 1.000000 1.000000
vt -2.000000 1.000000
vt 0.000000 0.000000
vt 1.000000 0.000000
vt 1.000000 1.000000
vt 0.000000 1.000000
vt -2.000000 0.000000
vt 2.000000 0.000000
vt 2.000000 1.000000
vt -2.000000 1.000000
vt -2.000000 0.000000
vt 2.000000 0.000000
vt 2.000000 1.000000
vt -2.000000 1.000000
vt -2.000000 0.000000
vt 2.000000 0.000000
vt 2.000000 1.000000
vt -2.000000 1.000000
vt -2.000000 -1.000000
vt 1.000000 -1.000000
vt 1.000000 2.000000
vt -2.000000 2.000000
vt -2.000000 -2.000000
vt 2.000000 -2.000000
vt 2.000000 2.000000
vt -2.000000 2.000000
vt -2.000000 -2.000000
vt 2.000000 -2.000000
vt 2.000000 2.000000
vt -2.000000 2.000000
vt -2.000000 -2.000000
vt 2.000000 -2.000000
vt 2.000000 2.000000
vt -2.000000 2.000000
vt -2.000000 -2.000000
vt 2.000000 -2.000000
vt 2.000000 2.000000
vt -2.000000 2.000000
vt -2.000000 -2.000000
vt 2.000000 -2.000000
vt 2.000000 2.000000
vt -2.000000 2.000000
vt -2.000000 -2.000000
vt 2.000000 -2.000000
vt 2.000000 2.000000
vt -2.000000 2.000000
vt -2.000000 -2.000000
vt 2.000000 -2.000000
vt 2.000000 2.000000
vt -2.000000 2.000000
vt -2.000000 -2.000000
vt 2.000000 -2.000000
vt 2.000000 2.000000
vt -2.000000 2.000000
vt 0.000000 0.000000
vt 1.500000 0.000000
vt 1.500000 1.000000
vt 0.000000 1.000000
vt 0.000000 0.000000
vt 0.500000 0.000000
vt 0.500000 1.000000
vt 0.000000 1.000000
vt 0.000000 0.000000
vt 0.500000 0.000000
vt 0.500000 1.000000
vt 0.000000 1.000000
vt 0.000000 0.000000
vt 2.000000 0.000000
vt 2.000000 1.000000
vt 0.000000 1.000000
vt 0.000000 0.000000
vt 2.000000 0.000000
vt 2.000000 1.000000
vt 0.000000 1.000000
vt 0.000000 0.000000
vt 2.000000 0.000000
vt 2.000000 1.000000
vt 0.000000 1.000000
vt 0.000000 0.000000
vt 2.000000 0.000000
vt 2.000000 1.000000
vt 0.000000 1.000000
vt 0.000000 0.000000
vt 2.000000 0.000000
vt 2.000000 1.000000
vt 0.000000 1.000000
vt 0.000000 0.000000
vt 2.000000 0.000000
vt 2.000000 1.000000
vt 0.000000 1.000000
vt 0.000000 0.000000
vt 2.000000 0.000000
vt 2.000000 1.000000
vt 0.000000 1.000000
vt 0.000000 0.000000
vt 2.000000 0.000000
vt 2.000000 1.000000
vt 0.000000 1.000000
vt 0.000000 0.000000
vt 2.000000 0.000000
vt 2.000000 1.000000
vt 0.000000 1.000000
vt 0.000000 0.000000
vt 2.000000 0.000000
vt 2.000000 1.000000
vt 0.000000 1.000000
vt 0.000000 0.000000
vt 2.000000 0.000000
vt 2.000000 1.000000
vt 0.000000 1.000000
vt 0.000000 0.000000
vt 2.000000 0.000000
vt 2.000000 1.000000
vt 0.000000 1.000000
vt 0.000000 0.000000
vt 2.000000 0.000000
vt 2.000000 1.000000
vt 0.000000 1.000000
vt 0.000000 0.000000
vt 2.000000 0.000000
vt 2.000000 1.000000
vt 0.000000 1.000000
vt 0.000000 0.000000
vt 2.000000 0.000000
vt 2.000000 1.000000
vt 0.000000 1.000000
vt 0.000000 0.000000
vt 2.000000 0.000000
vt 2.000000 1.000000
vt 0.000000 1.000000
vt 0.000000 0.000000
vt 2.000000 0.000000
vt 2.000000 1.000000
vt 0.000000 1.000000
vt 0.000000 0.000000
vt 2.000000 0.000000
vt 2.000000 1.000000
vt 0.000000 1.000000
vt 0.000000 0.000000
vt 2.000000 0.000000
vt 2.000000 1.000000
vt 0.000000 1.000000
vt 0.000000 0.000000
vt 2.000000 0.000000
vt 2.000000 1.000000
vt 0.000000 1.000000
vt 0.000000 0.000000
vt 2.000000 0.000000
vt 2.000000 1.000000
vt 0.000000 1.000000
vt 0.000000 0.000000
vt 2.000000 0.000000
vt 2.000000 1.000000
vt 0.000000 1.000000
vt 0.000000 0.000000
vt 2.000000 0.000000
vt 2.000000 1.000000
vt 0.000000 1.000000
vt 0.000000 0.000000
vt 2.000000 0.000000
vt 2.000000 1.000000
vt 0.000000 1.000000
vt 0.000000 0.000000
vt 2.000000 0.000000
vt 2.000000 1.000000
vt 0.000000 1.000000
vt 0.000000 0.000000
vt 2.000000 0.000000
vt 2.000000 1.000000
vt 0.000000 1.000000
vt 0.000000 0.000000
vt 2.000000 0.000000
vt 2.000000 1.000000
vt 0.000000 1.000000
vt 0.000000 0.000000
vt 2.000000 0.000000
vt 2.000000 1.000000
vt 0.000000 1.000000
vt 0.000000 0.000000
vt 2.000000 0.000000
vt 2.000000 1.000000
vt 0.000000 1.000000
vt 0.000000 0.000000
vt 2.000000 0.000000
vt 2.000000 1.000000
vt 0.000000 1.000000
vt 0.000000 0.000000
vt 2.000000 0.000000
vt 2.000000 1.000000
vt 0.000000 1.000000
vt 0.000000 0.000000
vt 2.000000 0.000000
vt 2.000000 1.000000
vt 0.000000 1.000000
vt 0.000000 0.000000
vt 2.000000 0.000000
vt 2.000000 1.000000
vt 0.000000 1.000000
vt 0.000000 0.000000
vt 2.000000 0.000000
vt 2.000000 1.000000
vt 0.000000 1.000000
vt 0.000000 0.000000
vt 2.000000 0.000000
vt 2.000000 1.000000
vt 0.000000 1.000000
vt 0.000000 0.000000
vt 2.000000 0.000000
vt 2.000000 1.000000
vt 0.000000 1.000000
vt 0.000000 0.000000
vt 1.000000 0.000000
vt 1.000000 1.000000
vt 0.000000 1.000000
vt 0.000000 0.000000
vt 1.000000 0.000000
vt 1.000000 1.000000
vt 0.000000 1.000000
vt 0.000000 0.000000
vt 0.500000 0.000000
vt 0.500000 1.000000
vt 0.000000 1.000000
vt 0.000000 0.000000
vt 2.000000 0.000000
vt 2.000000 1.000000
vt 0.000000 1.000000
vt 0.000000 0.000000
vt 2.000000 0.000000
vt 2.000000 1.000000
vt 0.000000 1.000000
vt 0.000000 0.000000
vt 2.000000 0.000000
vt 2.000000 1.000000
vt 0.000000 1.000000
vt 0.000000 0.000000
vt 0.500000 0.000000
vt 0.500000 1.000000
vt 0.000000 1.000000
vt 0.000000 0.000000
vt 0.500000 0.000000
vt 0.500000 1.000000
vt 0.000000 1.000000
vt 0.000000 0.000000
vt 2.000000 0.000000
vt 2.000000 1.000000
vt 0.000000 1.000000
vt 0.000000 0.000000
vt 2.000000 0.000000
vt 2.000000 1.000000
vt 0.000000 1.000000
vt 0.000000 0.000000
vt 0.500000 0.000000
vt 0.500000 1.000000
vt 0.000000 1.000000
vn 0.0000 1.0000 0.0000
vn 0.0000 0.6369 0.7709
usemtl road01.001
s off
f 1/1/1 2/2/1 3/3/1 4/4/1
f 5/5/1 6/6/1 7/7/1 8/8/1
f 9/9/1 10/10/1 11/11/1 12/12/1
f 13/13/1 14/14/1 15/15/1 16/16/1
f 17/17/1 18/18/1 19/19/1 20/20/1
usemtl road01_sub.001
f 21/21/1 22/22/1 23/23/1 24/24/1
f 25/25/1 26/26/1 27/27/1 28/28/1
f 29/29/1 30/30/1 31/31/1 32/32/1
f 33/33/1 34/34/1 35/35/1 36/36/1
f 37/37/1 38/38/1 39/39/1 40/40/1
usemtl grass01_a.001
f 41/41/1 42/42/1 43/43/1 44/44/1
f 45/45/1 46/46/1 47/47/1 48/48/1
f 49/49/1 50/50/1 51/51/1 52/52/1
f 53/53/1 54/54/1 55/55/1 56/56/1
f 57/57/1 58/58/1 59/59/1 60/60/1
f 61/61/1 62/62/1 63/63/1 64/64/1
f 65/65/1 66/66/1 67/67/1 68/68/1
f 69/69/1 70/70/1 71/71/1 72/72/1
f 73/73/1 74/74/1 75/75/1 76/76/1
f 77/77/1 78/78/1 79/79/1 80/80/1
f 81/81/1 82/82/1 83/83/1 84/84/1
usemtl flower01.001
f 85/85/1 86/86/1 87/87/1 88/88/1
f 89/89/1 90/90/1 91/91/1 92/92/1
f 93/93/1 94/94/1 95/95/1 96/96/1
f 97/97/1 98/98/1 99/99/1 100/100/1
f 101/101/1 102/102/1 103/103/1 104/104/1
f 105/105/1 106/106/1 107/107/1 108/108/1
f 109/109/1 110/110/1 111/111/1 112/112/1
f 113/113/1 114/114/1 115/115/1 116/116/1
f 117/117/1 118/118/1 119/119/1 120/120/1
f 121/121/1 122/122/1 123/123/1 124/124/1
f 125/125/1 126/126/1 127/127/1 128/128/1
f 129/129/1 130/130/1 131/131/1 132/132/1
usemtl grass01.001
f 133/133/1 134/134/1 135/135/1 136/136/1
f 137/137/1 138/138/1 139/139/1 140/140/1
f 141/141/1 142/142/1 143/143/1 144/144/1
f 145/145/1 146/146/1 147/147/1 148/148/1
f 149/149/1 150/150/1 151/151/1 152/152/1
f 153/153/1 154/154/1 155/155/1 156/156/1
f 157/157/1 158/158/1 159/159/1 160/160/1
f 161/161/1 162/162/1 163/163/1 164/164/1
f 165/165/1 166/166/1 167/167/1 168/168/1
f 169/169/1 170/170/1 171/171/1 172/172/1
f 173/173/1 174/174/1 175/175/1 176/176/1
f 177/177/1 178/178/1 179/179/1 180/180/1
f 181/181/1 182/182/1 183/183/1 184/184/1
f 185/185/1 186/186/1 187/187/1 188/188/1
usemtl tree01.001
f 189/189/2 190/190/2 191/191/2 192/192/2
f 193/193/2 194/194/2 195/195/2 196/196/2
f 197/197/2 198/198/2 199/199/2 200/200/2
f 201/201/2 202/202/2 203/203/2 204/204/2
f 205/205/2 206/206/2 207/207/2 208/208/2
f 209/209/2 210/210/2 211/211/2 212/212/2
f 213/213/2 214/214/2 215/215/2 216/216/2
f 217/217/2 218/218/2 219/219/2 220/220/2
f 221/221/2 222/222/2 223/223/2 224/224/2
f 225/225/2 226/226/2 227/227/2 228/228/2
f 229/229/2 230/230/2 231/231/2 232/232/2
f 233/233/2 234/234/2 235/235/2 236/236/2
f 237/237/2 238/238/2 239/239/2 240/240/2
f 241/241/2 242/242/2 243/243/2 244/244/2
usemtl road01_r.001
f 245/245/1 246/246/1 247/247/1 248/248/1
f 249/249/1 250/250/1 251/251/1 252/252/1
f 253/253/1 254/254/1 255/255/1 256/256/1
f 257/257/1 258/258/1 259/259/1 260/260/1
f 261/261/1 262/262/1 263/263/1 264/264/1
f 265/265/1 266/266/1 267/267/1 268/268/1
f 269/269/1 270/270/1 271/271/1 272/272/1
f 273/273/1 274/274/1 275/275/1 276/276/1
f 277/277/1 278/278/1 279/279/1 280/280/1
f 281/281/1 282/282/1 283/283/1 284/284/1
f 285/285/1 286/286/1 287/287/1 288/288/1
f 289/289/1 290/290/1 291/291/1 292/292/1
f 293/293/1 294/294/1 295/295/1 296/296/1
f 297/297/1 298/298/1 299/299/1 300/300/1
f 301/301/1 302/302/1 303/303/1 304/304/1
f 305/305/1 306/306/1 307/307/1 308/308/1
f 309/309/1 310/310/1 311/311/1 312/312/1
f 313/313/1 314/314/1 315/315/1 316/316/1
f 317/317/1 318/318/1 319/319/1 320/320/1
usemtl tree01_un.001
f 321/321/1 322/322/1 323/323/1 324/324/1
f 325/325/1 326/326/1 327/327/1 328/328/1
f 329/329/1 330/330/1 331/331/1 332/332/1
f 333/333/1 334/334/1 335/335/1 336/336/1
f 337/337/1 338/338/1 339/339/1 340/340/1
f 341/341/1 342/342/1 343/343/1 344/344/1
f 345/345/1 346/346/1 347/347/1 348/348/1
f 349/349/1 350/350/1 351/351/1 352/352/1
f 353/353/1 354/354/1 355/355/1 356/356/1
f 357/357/1 358/358/1 359/359/1 360/360/1
f 361/361/1 362/362/1 363/363/1 364/364/1
f 365/365/1 366/366/1 367/367/1 368/368/1
f 369/369/1 370/370/1 371/371/1 372/372/1
f 373/373/1 374/374/1 375/375/1 376/376/1
f 377/377/1 378/378/1 379/379/1 380/380/1
f 381/381/1 382/382/1 383/383/1 384/384/1
f 385/385/1 386/386/1 387/387/1 388/388/1
f 389/389/1 390/390/1 391/391/1 392/392/1
f 393/393/1 394/394/1 395/395/1 396/396/1
f 397/397/1 398/398/1 399/399/1 400/400/1
f 401/401/1 402/402/1 403/403/1 404/404/1
f 405/405/1 406/406/1 407/407/1 408/408/1
usemtl tree01_re.001
f 409/409/2 410/410/2 411/411/2 412/412/2
f 413/413/2 414/414/2 415/415/2 416/416/2
f 417/417/2 418/418/2 419/419/2 420/420/2
f 421/421/2 422/422/2 423/423/2 424/424/2
f 425/425/2 426/426/2 427/427/2 428/428/2
f 429/429/2 430/430/2 431/431/2 432/432/2
f 433/433/2 434/434/2 435/435/2 436/436/2
f 437/437/2 438/438/2 439/439/2 440/440/2
f 441/441/2 442/442/2 443/443/2 444/444/2
f 445/445/2 446/446/2 447/447/2 448/448/2
f 449/449/2 450/450/2 451/451/2 452/452/2
f 453/453/2 454/454/2 455/455/2 456/456/2
f 457/457/2 458/458/2 459/459/2 460/460/2
f 461/461/2 462/462/2 463/463/2 464/464/2
f 465/465/2 466/466/2 467/467/2 468/468/2
f 469/469/2 470/470/2 471/471/2 472/472/2
f 473/473/2 474/474/2 475/475/2 476/476/2
f 477/477/2 478/478/2 479/479/2 480/480/2
f 481/481/2 482/482/2 483/483/2 484/484/2
f 485/485/2 486/486/2 487/487/2 488/488/2
f 489/489/2 490/490/2 491/491/2 492/492/2
f 493/493/2 494/494/2 495/495/2 496/496/2
f 497/497/2 498/498/2 499/499/2 500/500/2
f 501/501/2 502/502/2 503/503/2 504/504/2
f 505/505/2 506/506/2 507/507/2 508/508/2
f 509/509/2 510/510/2 511/511/2 512/512/2
f 513/513/2 514/514/2 515/515/2 516/516/2
f 517/517/2 518/518/2 519/519/2 520/520/2
f 521/521/2 522/522/2 523/523/2 524/524/2
f 525/525/2 526/526/2 527/527/2 528/528/2
f 529/529/2 530/530/2 531/531/2 532/532/2
f 533/533/2 534/534/2 535/535/2 536/536/2
f 537/537/2 538/538/2 539/539/2 540/540/2
f 541/541/2 542/542/2 543/543/2 544/544/2
f 545/545/2 546/546/2 547/547/2 548/548/2
f 549/549/2 550/550/2 551/551/2 552/552/2
f 553/553/2 554/554/2 555/555/2 556/556/2
f 557/557/2 558/558/2 559/559/2 560/560/2
f 561/561/2 562/562/2 563/563/2 564/564/2
f 565/565/2 566/566/2 567/567/2 568/568/2
f 569/569/2 570/570/2 571/571/2 572/572/2
f 573/573/2 574/574/2 575/575/2 576/576/2
f 577/577/2 578/578/2 579/579/2 580/580/2
f 581/581/2 582/582/2 583/583/2 584/584/2
f 585/585/2 586/586/2 587/587/2 588/588/2
f 589/589/2 590/590/2 591/591/2 592/592/2
f 593/593/2 594/594/2 595/595/2 596/596/2
f 597/597/2 598/598/2 599/599/2 600/600/2
f 601/601/2 602/602/2 603/603/2 604/604/2
f 605/605/2 606/606/2 607/607/2 608/608/2
